<?xml version="1.0" encoding="UTF-8" standalone="no"?>
<svg width="1280px" height="232px" viewBox="0 0 1280 232" version="1.1" xmlns="http://www.w3.org/2000/svg" xmlns:xlink="http://www.w3.org/1999/xlink">
    <!-- Generator: Sketch 50.2 (55047) - http://www.bohemiancoding.com/sketch -->
    <title>logotype-inline</title>
    <desc>Created with Sketch.</desc>
    <defs>
        <path d="M0,1.00508908 L22.3861958,1.00508908 C32.7712415,1.00508908 40.2762163,2.53768556 44.9013446,5.60292467 C49.5264729,8.6681637 51.8390016,13.5097755 51.8390016,20.1279053 C51.8390016,24.5864348 50.704229,28.296015 48.4346492,31.2567573 C46.1650701,34.2174996 42.8983002,36.0809973 38.6342408,36.8473075 L38.6342408,37.3697885 C43.9299271,38.3799239 47.8242604,40.3740411 50.3173598,43.3521996 C52.8104585,46.330358 54.0569889,50.3621316 54.0569889,55.4476424 C54.0569889,62.309598 51.6928794,67.6823935 46.9645882,71.5661907 C42.2362977,75.449988 35.6597734,77.3918572 27.2348193,77.3918572 L0,77.3918572 L0,1.00508908 Z M12.3040163,32.5648855 L24.1259647,32.5648855 C29.2659681,32.5648855 33.0181138,31.7376856 35.3825161,30.0832609 C37.7469176,28.4288362 38.9291002,25.6163565 38.9291002,21.6457373 C38.9291002,18.058248 37.6526855,15.4634524 35.0998168,13.8612727 C32.5469489,12.2590931 28.4949732,11.4580153 22.9437702,11.4580153 L12.3040163,11.4580153 L12.3040163,32.5648855 Z M12.3040163,42.8167939 L12.3040163,66.9389316 L25.3652417,66.9389316 C30.5074823,66.9389316 34.3898154,65.9403645 37.0123582,63.9432015 C39.6349002,61.9460385 40.9461524,58.7940409 40.9461524,54.487115 C40.9461524,50.5275224 39.6091898,47.5926043 36.9352245,45.6822748 C34.26126,43.7719446 30.1989506,42.8167939 24.7481758,42.8167939 L12.3040163,42.8167939 Z M137.562935,1.00508908 L137.562935,50.4063692 C137.562935,56.0462895 136.369539,60.9811466 133.982711,65.2110866 C131.595884,69.4410274 128.144479,72.6961176 123.628395,74.9764565 C119.112312,77.2567946 113.711981,78.3969469 107.427241,78.3969469 C98.085987,78.3969469 90.822585,75.8903527 85.6368153,70.8770902 C80.4510463,65.8638268 77.8582004,58.9706943 77.8582004,50.1974846 L77.8582004,1.00508908 L90.2215625,1.00508908 L90.2215625,49.3097233 C90.2215625,55.6111161 91.6639403,60.2587588 94.5487392,63.2527908 C97.4335373,66.2468227 101.863698,67.7438164 107.839353,67.7438164 C119.447234,67.7438164 125.251087,61.564366 125.251087,49.2052806 L125.251087,1.00508908 L137.562935,1.00508908 Z M191.630936,77.3918572 L179.304896,77.3918572 L179.304896,11.715956 L157.128337,11.715956 L157.128337,1.00508908 L213.807494,1.00508908 L213.807494,11.715956 L191.630936,11.715956 L191.630936,77.3918572 Z M262.22775,77.3918572 L249.90171,77.3918572 L249.90171,11.715956 L227.725152,11.715956 L227.725152,1.00508908 L284.404308,1.00508908 L284.404308,11.715956 L262.22775,11.715956 L262.22775,77.3918572 Z M347.13462,77.3918572 L304.574826,77.3918572 L304.574826,1.00508908 L347.13462,1.00508908 L347.13462,11.5592116 L316.874452,11.5592116 L316.874452,32.353968 L345.230493,32.353968 L345.230493,42.8035946 L316.874452,42.8035946 L316.874452,66.785487 L347.13462,66.785487 L347.13462,77.3918572 Z M384.651784,36.5852418 L393.178526,36.5852418 C398.897293,36.5852418 403.040769,35.5075503 405.609077,33.3521351 C408.177386,31.19672 409.461521,27.99841 409.461521,23.7571093 C409.461521,19.4462789 408.074655,16.3522617 405.300882,14.4749646 C402.527108,12.5976675 398.349389,11.6590331 392.767598,11.6590331 L384.651784,11.6590331 L384.651784,36.5852418 Z M384.652335,46.8789489 L384.652335,77.3918572 L372.347767,77.3918572 L372.347767,1.00508908 L393.610473,1.00508908 C403.323751,1.00508908 410.514214,2.85117124 415.182079,6.54339104 C419.849944,10.2356108 422.183841,15.8086891 422.183841,23.2627931 C422.183841,32.7720007 417.310114,39.5467743 407.562514,43.5873161 L428.825218,77.3918572 L414.821694,77.3918572 L396.802453,46.8789489 L384.652335,46.8789489 Z M460.818595,77.3918572 L448.592326,77.3918572 L448.592326,1.00508908 L491.15212,1.00508908 L491.15212,11.5592116 L460.818595,11.5592116 L460.818595,35.4366078 L489.243378,35.4366078 L489.243378,46.0429787 L460.818595,46.0429787 L460.818595,77.3918572 Z M513.541395,77.3918572 L513.541395,1.00508908 L525.846117,1.00508908 L525.846117,66.6809903 L557.714834,66.6809903 L557.714834,77.3918572 L513.541395,77.3918572 Z M597.65246,35.8545929 L615.503034,1.00508908 L628.91676,1.00508908 L603.79182,47.767167 L603.79182,77.3918572 L591.409913,77.3918572 L591.409913,48.1851521 L566.388153,1.00508908 L579.801879,1.00508908 L597.65246,35.8545929 Z M638.195196,70.9816963 C638.195196,68.4477604 638.848978,66.503949 640.156559,65.1502026 C641.464139,63.7964563 643.356668,63.1195929 645.834184,63.1195929 C648.346118,63.1195929 650.255847,63.8224895 651.563428,65.2283023 C652.871009,66.6341159 653.524791,68.5518949 653.524791,70.9816963 C653.524791,73.4462085 652.862412,75.3986982 651.537623,76.8392233 C650.212834,78.2797484 648.311709,79 645.834184,79 C643.356668,79 641.464139,78.2884259 640.156559,76.8652565 C638.848978,75.4420872 638.195196,73.48092 638.195196,70.9816963 Z M705.880189,10.7202812 C698.792731,10.7202812 693.219183,13.2652331 689.159372,18.3552132 C685.099568,23.4451933 683.069694,30.4699578 683.069694,39.4297174 C683.069694,48.8078316 685.022161,55.9023202 688.927143,60.7133976 C692.832125,65.5244749 698.48308,67.9299772 705.880189,67.9299772 C709.079866,67.9299772 712.176283,67.6075007 715.169528,66.9625369 C718.162781,66.3175739 721.276399,65.4895929 724.510476,64.4785696 L724.510476,75.1988509 C718.592797,77.4649377 711.883895,78.5979643 704.383575,78.5979643 C693.339525,78.5979643 684.858783,75.2076003 678.941095,68.4267706 C673.023416,61.6459409 670.06462,51.945491 670.06462,39.3251292 C670.06462,31.3763932 671.501012,24.4213534 674.373837,18.4598013 C677.246669,12.4982493 681.401025,7.93128087 686.837039,4.75875898 C692.273053,1.58623717 698.65511,0 705.983401,0 C713.690153,0 720.81191,1.63853063 727.348892,4.91564117 L722.91065,15.3221581 C720.364669,14.1019573 717.672503,13.0299399 714.83408,12.1060737 C711.995656,11.1822074 709.011055,10.7202812 705.880189,10.7202812 Z M781.945319,77.3918572 L760.067343,13.5968888 L759.654551,13.5968888 C760.239342,23.071264 760.531738,31.9533576 760.531738,40.2434361 L760.531738,77.3918572 L749.334756,77.3918572 L749.334756,1.00508908 L766.72362,1.00508908 L787.672815,61.7696659 L787.982403,61.7696659 L809.550791,1.00508908 L826.991249,1.00508908 L826.991249,77.3918572 L815.123481,77.3918572 L815.123481,39.6164585 C815.123481,35.8197418 815.218081,30.8736348 815.407272,24.7779889 C815.596472,18.6823431 815.759866,14.9901787 815.897463,13.701385 L815.484671,13.701385 L792.832713,77.3918572 L781.945319,77.3918572 Z M899,56.7913432 C899,63.5896045 896.579344,68.9235445 891.737969,72.7933243 C886.896587,76.6631033 880.218331,78.5979643 871.702999,78.5979643 C863.187666,78.5979643 856.21755,77.2557637 850.792463,74.5713218 L850.792463,62.7528655 C854.226061,64.3914209 857.874214,65.6813282 861.737017,66.6226257 C865.59982,67.5639232 869.196465,68.0345653 872.527056,68.0345653 C877.402769,68.0345653 880.999414,67.0932819 883.317102,65.2106861 C885.634783,63.3280911 886.793603,60.8005705 886.793603,57.6280487 C886.793603,54.7692921 885.729201,52.346359 883.600366,50.359175 C881.471539,48.371991 877.076594,46.018782 870.415405,43.2994776 C863.548195,40.4755843 858.706891,37.2508168 855.891336,33.6250772 C853.075782,29.999338 851.668028,25.6415437 851.668028,20.5515636 C851.668028,14.1716569 853.899831,9.15147787 858.363515,5.49087576 C862.8272,1.83027364 868.818744,0 876.338335,0 C883.548898,0 890.72502,1.60366832 897.866914,4.81105307 L893.952627,15.0083937 C887.257108,12.1496378 881.282725,10.7202812 876.029314,10.7202812 C872.046335,10.7202812 869.024813,11.6005557 866.964647,13.361131 C864.904488,15.1217063 863.874425,17.4487685 863.874425,20.3423873 C863.874425,22.3295714 864.286445,24.0291111 865.11051,25.4410577 C865.934575,26.8530042 867.290829,28.1864892 869.179312,29.4415528 C871.067794,30.6966165 874.467006,32.3525783 879.377058,34.409488 C884.90516,36.7453005 888.956753,38.9241979 891.531955,40.9462452 C894.107157,42.9682916 895.995608,45.2517757 897.197371,47.7967662 C898.399126,50.3417559 899,53.3399185 899,56.7913432 Z" id="path-1"></path>
        <linearGradient x1="46.2736374%" y1="141.490309%" x2="38.7092429%" y2="-37.9697389%" id="linearGradient-2">
            <stop stop-color="#FFFFFF" stop-opacity="0.5" offset="0%"></stop>
            <stop stop-color="#FFFFFF" stop-opacity="0" offset="100%"></stop>
        </linearGradient>
        <linearGradient x1="50%" y1="83.7407855%" x2="50%" y2="13.8766243%" id="linearGradient-3">
            <stop stop-color="#FFFFFF" offset="0%"></stop>
            <stop stop-color="#FFFFFF" stop-opacity="0" offset="100%"></stop>
        </linearGradient>
        <linearGradient x1="75.6601979%" y1="100%" x2="50%" y2="0%" id="linearGradient-4">
            <stop stop-color="#FFFFFF" stop-opacity="0.740772192" offset="0%"></stop>
            <stop stop-color="#FFFFFF" stop-opacity="0" offset="100%"></stop>
        </linearGradient>
        <linearGradient x1="11.3392416%" y1="21.2093065%" x2="86.4697897%" y2="100%" id="linearGradient-5">
            <stop stop-color="#000000" stop-opacity="0" offset="0%"></stop>
            <stop stop-color="#000000" stop-opacity="0.19921875" offset="100%"></stop>
        </linearGradient>
        <linearGradient x1="85.5629882%" y1="100%" x2="50%" y2="0%" id="linearGradient-6">
            <stop stop-color="#FFFFFF" offset="0%"></stop>
            <stop stop-color="#FFFFFF" stop-opacity="0" offset="100%"></stop>
        </linearGradient>
        <linearGradient x1="84.7559823%" y1="100%" x2="50%" y2="36.6746294%" id="linearGradient-7">
            <stop stop-color="#FFFFFF" stop-opacity="0.5" offset="0%"></stop>
            <stop stop-color="#FFFFFF" stop-opacity="0" offset="100%"></stop>
        </linearGradient>
        <linearGradient x1="100%" y1="100%" x2="50%" y2="35.0884169%" id="linearGradient-8">
            <stop stop-color="#FFFFFF" offset="0%"></stop>
            <stop stop-color="#FFFFFF" stop-opacity="0" offset="100%"></stop>
        </linearGradient>
    </defs>
    <g id="logotype-inline" stroke="none" stroke-width="1" fill="none" fill-rule="evenodd">
        <g transform="translate(2.000000, 11.000000)">
            <g id="label" transform="translate(289.000000, 72.000000)">
                <g id="path-19">
                    <use fill="#1785DB" xlink:href="#path-1"></use>
                    <use fill="#198BDE" xlink:href="#path-1"></use>
                </g>
                <path d="M0,1.00508908 L22.3861958,1.00508908 C32.7712415,1.00508908 40.2762163,2.53768556 44.9013446,5.60292467 C49.5264729,8.6681637 51.8390016,13.5097755 51.8390016,20.1279053 C51.8390016,24.5864348 50.704229,28.296015 48.4346492,31.2567573 C46.1650701,34.2174996 42.8983002,36.0809973 38.6342408,36.8473075 L38.6342408,37.3697885 C43.9299271,38.3799239 47.8242604,40.3740411 50.3173598,43.3521996 C52.8104585,46.330358 54.0569889,50.3621316 54.0569889,55.4476424 C54.0569889,62.309598 51.6928794,67.6823935 46.9645882,71.5661907 C42.2362977,75.449988 35.6597734,77.3918572 27.2348193,77.3918572 L0,77.3918572 L0,1.00508908 Z M12.3040163,32.5648855 L24.1259647,32.5648855 C29.2659681,32.5648855 33.0181138,31.7376856 35.3825161,30.0832609 C37.7469176,28.4288362 38.9291002,25.6163565 38.9291002,21.6457373 C38.9291002,18.058248 37.6526855,15.4634524 35.0998168,13.8612727 C32.5469489,12.2590931 28.4949732,11.4580153 22.9437702,11.4580153 L12.3040163,11.4580153 L12.3040163,32.5648855 Z M12.3040163,42.8167939 L12.3040163,66.9389316 L25.3652417,66.9389316 C30.5074823,66.9389316 34.3898154,65.9403645 37.0123582,63.9432015 C39.6349002,61.9460385 40.9461524,58.7940409 40.9461524,54.487115 C40.9461524,50.5275224 39.6091898,47.5926043 36.9352245,45.6822748 C34.26126,43.7719446 30.1989506,42.8167939 24.7481758,42.8167939 L12.3040163,42.8167939 Z M137.562935,1.00508908 L137.562935,50.4063692 C137.562935,56.0462895 136.369539,60.9811466 133.982711,65.2110866 C131.595884,69.4410274 128.144479,72.6961176 123.628395,74.9764565 C119.112312,77.2567946 113.711981,78.3969469 107.427241,78.3969469 C98.085987,78.3969469 90.822585,75.8903527 85.6368153,70.8770902 C80.4510463,65.8638268 77.8582004,58.9706943 77.8582004,50.1974846 L77.8582004,1.00508908 L90.2215625,1.00508908 L90.2215625,49.3097233 C90.2215625,55.6111161 91.6639403,60.2587588 94.5487392,63.2527908 C97.4335373,66.2468227 101.863698,67.7438164 107.839353,67.7438164 C119.447234,67.7438164 125.251087,61.564366 125.251087,49.2052806 L125.251087,1.00508908 L137.562935,1.00508908 Z M191.630936,77.3918572 L179.304896,77.3918572 L179.304896,11.715956 L157.128337,11.715956 L157.128337,1.00508908 L213.807494,1.00508908 L213.807494,11.715956 L191.630936,11.715956 L191.630936,77.3918572 Z M262.22775,77.3918572 L249.90171,77.3918572 L249.90171,11.715956 L227.725152,11.715956 L227.725152,1.00508908 L284.404308,1.00508908 L284.404308,11.715956 L262.22775,11.715956 L262.22775,77.3918572 Z M347.13462,77.3918572 L304.574826,77.3918572 L304.574826,1.00508908 L347.13462,1.00508908 L347.13462,11.5592116 L316.874452,11.5592116 L316.874452,32.353968 L345.230493,32.353968 L345.230493,42.8035946 L316.874452,42.8035946 L316.874452,66.785487 L347.13462,66.785487 L347.13462,77.3918572 Z M384.651784,36.5852418 L393.178526,36.5852418 C398.897293,36.5852418 403.040769,35.5075503 405.609077,33.3521351 C408.177386,31.19672 409.461521,27.99841 409.461521,23.7571093 C409.461521,19.4462789 408.074655,16.3522617 405.300882,14.4749646 C402.527108,12.5976675 398.349389,11.6590331 392.767598,11.6590331 L384.651784,11.6590331 L384.651784,36.5852418 Z M384.652335,46.8789489 L384.652335,77.3918572 L372.347767,77.3918572 L372.347767,1.00508908 L393.610473,1.00508908 C403.323751,1.00508908 410.514214,2.85117124 415.182079,6.54339104 C419.849944,10.2356108 422.183841,15.8086891 422.183841,23.2627931 C422.183841,32.7720007 417.310114,39.5467743 407.562514,43.5873161 L428.825218,77.3918572 L414.821694,77.3918572 L396.802453,46.8789489 L384.652335,46.8789489 Z M460.818595,77.3918572 L448.592326,77.3918572 L448.592326,1.00508908 L491.15212,1.00508908 L491.15212,11.5592116 L460.818595,11.5592116 L460.818595,35.4366078 L489.243378,35.4366078 L489.243378,46.0429787 L460.818595,46.0429787 L460.818595,77.3918572 Z M513.541395,77.3918572 L513.541395,1.00508908 L525.846117,1.00508908 L525.846117,66.6809903 L557.714834,66.6809903 L557.714834,77.3918572 L513.541395,77.3918572 Z M597.65246,35.8545929 L615.503034,1.00508908 L628.91676,1.00508908 L603.79182,47.767167 L603.79182,77.3918572 L591.409913,77.3918572 L591.409913,48.1851521 L566.388153,1.00508908 L579.801879,1.00508908 L597.65246,35.8545929 Z M638.195196,70.9816963 C638.195196,68.4477604 638.848978,66.503949 640.156559,65.1502026 C641.464139,63.7964563 643.356668,63.1195929 645.834184,63.1195929 C648.346118,63.1195929 650.255847,63.8224895 651.563428,65.2283023 C652.871009,66.6341159 653.524791,68.5518949 653.524791,70.9816963 C653.524791,73.4462085 652.862412,75.3986982 651.537623,76.8392233 C650.212834,78.2797484 648.311709,79 645.834184,79 C643.356668,79 641.464139,78.2884259 640.156559,76.8652565 C638.848978,75.4420872 638.195196,73.48092 638.195196,70.9816963 Z M705.880189,10.7202812 C698.792731,10.7202812 693.219183,13.2652331 689.159372,18.3552132 C685.099568,23.4451933 683.069694,30.4699578 683.069694,39.4297174 C683.069694,48.8078316 685.022161,55.9023202 688.927143,60.7133976 C692.832125,65.5244749 698.48308,67.9299772 705.880189,67.9299772 C709.079866,67.9299772 712.176283,67.6075007 715.169528,66.9625369 C718.162781,66.3175739 721.276399,65.4895929 724.510476,64.4785696 L724.510476,75.1988509 C718.592797,77.4649377 711.883895,78.5979643 704.383575,78.5979643 C693.339525,78.5979643 684.858783,75.2076003 678.941095,68.4267706 C673.023416,61.6459409 670.06462,51.945491 670.06462,39.3251292 C670.06462,31.3763932 671.501012,24.4213534 674.373837,18.4598013 C677.246669,12.4982493 681.401025,7.93128087 686.837039,4.75875898 C692.273053,1.58623717 698.65511,0 705.983401,0 C713.690153,0 720.81191,1.63853063 727.348892,4.91564117 L722.91065,15.3221581 C720.364669,14.1019573 717.672503,13.0299399 714.83408,12.1060737 C711.995656,11.1822074 709.011055,10.7202812 705.880189,10.7202812 Z M781.945319,77.3918572 L760.067343,13.5968888 L759.654551,13.5968888 C760.239342,23.071264 760.531738,31.9533576 760.531738,40.2434361 L760.531738,77.3918572 L749.334756,77.3918572 L749.334756,1.00508908 L766.72362,1.00508908 L787.672815,61.7696659 L787.982403,61.7696659 L809.550791,1.00508908 L826.991249,1.00508908 L826.991249,77.3918572 L815.123481,77.3918572 L815.123481,39.6164585 C815.123481,35.8197418 815.218081,30.8736348 815.407272,24.7779889 C815.596472,18.6823431 815.759866,14.9901787 815.897463,13.701385 L815.484671,13.701385 L792.832713,77.3918572 L781.945319,77.3918572 Z M899,56.7913432 C899,63.5896045 896.579344,68.9235445 891.737969,72.7933243 C886.896587,76.6631033 880.218331,78.5979643 871.702999,78.5979643 C863.187666,78.5979643 856.21755,77.2557637 850.792463,74.5713218 L850.792463,62.7528655 C854.226061,64.3914209 857.874214,65.6813282 861.737017,66.6226257 C865.59982,67.5639232 869.196465,68.0345653 872.527056,68.0345653 C877.402769,68.0345653 880.999414,67.0932819 883.317102,65.2106861 C885.634783,63.3280911 886.793603,60.8005705 886.793603,57.6280487 C886.793603,54.7692921 885.729201,52.346359 883.600366,50.359175 C881.471539,48.371991 877.076594,46.018782 870.415405,43.2994776 C863.548195,40.4755843 858.706891,37.2508168 855.891336,33.6250772 C853.075782,29.999338 851.668028,25.6415437 851.668028,20.5515636 C851.668028,14.1716569 853.899831,9.15147787 858.363515,5.49087576 C862.8272,1.83027364 868.818744,0 876.338335,0 C883.548898,0 890.72502,1.60366832 897.866914,4.81105307 L893.952627,15.0083937 C887.257108,12.1496378 881.282725,10.7202812 876.029314,10.7202812 C872.046335,10.7202812 869.024813,11.6005557 866.964647,13.361131 C864.904488,15.1217063 863.874425,17.4487685 863.874425,20.3423873 C863.874425,22.3295714 864.286445,24.0291111 865.11051,25.4410577 C865.934575,26.8530042 867.290829,28.1864892 869.179312,29.4415528 C871.067794,30.6966165 874.467006,32.3525783 879.377058,34.409488 C884.90516,36.7453005 888.956753,38.9241979 891.531955,40.9462452 C894.107157,42.9682916 895.995608,45.2517757 897.197371,47.7967662 C898.399126,50.3417559 899,53.3399185 899,56.7913432 Z" id="path-19-copy" fill="url(#linearGradient-2)" opacity="0.565071232"></path>
            </g>
            <g id="butterfly">
                <g id="path-2-link" transform="translate(105.662861, 178.667100) rotate(1.000000) translate(-105.662861, -178.667100) translate(86.662861, 163.167100)" fill="#1785DB">
                    <path d="M13.4652157,30.7940122 C30.8645396,30.7940122 25.7764522,9.81954858 37.967478,4.70433513 C30.5424511,1.08879214 20.7079651,-0.21876253 13.4652157,2.2003119 C3.59022453,5.3277277 0.567294602,12.4667669 0.567294602,18.1948275 C0.567294602,23.922888 5.44893118,30.7940122 13.4652157,30.7940122 Z" id="path-2"></path>
                </g>
                <g id="path-2-link" style="mix-blend-mode: soft-light;" transform="translate(105.662861, 178.667100) rotate(1.000000) translate(-105.662861, -178.667100) translate(86.662861, 163.167100)" fill="url(#linearGradient-3)">
                    <path d="M13.4652157,30.7940122 C30.8645396,30.7940122 25.7764522,9.81954858 37.967478,4.70433513 C30.5424511,1.08879214 20.7079651,-0.21876253 13.4652157,2.2003119 C3.59022453,5.3277277 0.567294602,12.4667669 0.567294602,18.1948275 C0.567294602,23.922888 5.44893118,30.7940122 13.4652157,30.7940122 Z" id="path-2"></path>
                </g>
                <g id="path-4-link" transform="translate(148.705046, 179.668852) scale(-1, 1) rotate(1.000000) translate(-148.705046, -179.668852) translate(130.705046, 163.168852)" fill="#1785DB">
                    <path d="M12.1499016,32.1066332 C21.5034732,27.8972635 24.3975998,9.67696037 35.9733511,4.19761133 C28.5943082,0.579061601 18.8207274,-0.729580545 11.6228322,1.69150568 C2.68074962,4.78295703 0.354128949,12.7333796 0.354128949,18.4662039 C0.354128949,24.1990283 7.1040701,33.8953384 12.1499016,32.1066332 Z" id="path-4"></path>
                </g>
                <g id="path-4-link" style="mix-blend-mode: soft-light;" transform="translate(148.705046, 179.668852) scale(-1, 1) rotate(1.000000) translate(-148.705046, -179.668852) translate(130.705046, 163.168852)" fill="url(#linearGradient-3)">
                    <path d="M12.1499016,32.1066332 C21.5034732,27.8972635 24.3975998,9.67696037 35.9733511,4.19761133 C28.5943082,0.579061601 18.8207274,-0.729580545 11.6228322,1.69150568 C2.68074962,4.78295703 0.354128949,12.7333796 0.354128949,18.4662039 C0.354128949,24.1990283 7.1040701,33.8953384 12.1499016,32.1066332 Z" id="path-4"></path>
                </g>
                <g id="path-7-link" transform="translate(66.721607, 113.741348) rotate(-41.000000) translate(-66.721607, -113.741348) translate(43.721607, 38.741348)" fill="#166AAC">
                    <path d="M34.7798085,149.809481 C38.2482219,113.477015 45.5829773,80.7914073 45.5829773,52.2904106 C45.5829773,23.7894139 31.939327,0.830567422 22.8121176,0.684790805 C13.6849081,0.539014187 0.0412577947,23.7894139 0.0412577947,52.2904106 C0.0412577947,80.7914073 2.13096457,99.122325 34.7798085,149.809481 Z" id="path-7"></path>
                </g>
                <g id="path-7-link" style="mix-blend-mode: soft-light;" transform="translate(66.721607, 113.741348) rotate(-41.000000) translate(-66.721607, -113.741348) translate(43.721607, 38.741348)" fill="url(#linearGradient-4)" fill-opacity="0.55">
                    <path d="M34.7798085,149.809481 C38.2482219,113.477015 45.5829773,80.7914073 45.5829773,52.2904106 C45.5829773,23.7894139 31.939327,0.830567422 22.8121176,0.684790805 C13.6849081,0.539014187 0.0412577947,23.7894139 0.0412577947,52.2904106 C0.0412577947,80.7914073 2.13096457,99.122325 34.7798085,149.809481 Z" id="path-7"></path>
                </g>
                <path d="M87.2515107,181.474886 C91.7468844,138.325517 95.619441,102.250397 95.619441,68.4018821 C95.619441,34.5533666 77.9360507,7.28685118 66.1063714,7.11372312 C54.2766921,6.94059506 36.5933018,34.5533666 36.5933018,68.4018821 C36.5933018,102.250397 68.974739,152.436441 87.2515107,181.474886 Z" id="Oval-Copy-4_" fill="url(#linearGradient-5)" fill-rule="nonzero" opacity="0.55" transform="translate(66.106371, 94.293900) rotate(-27.000000) translate(-66.106371, -94.293900) "></path>
                <g id="path-12-link" transform="translate(67.993651, 92.658670) rotate(-25.000000) translate(-67.993651, -92.658670) translate(37.993651, 5.158670)" fill="#1785DB">
                    <path d="M51.5727565,174.715732 C56.0681302,131.566363 59.9406869,95.4912441 59.9406869,61.6427284 C59.9406869,27.7942129 42.2572966,0.527697572 30.4276173,0.354569515 C18.5979379,0.181441457 0.914547567,27.7942129 0.914547567,61.6427284 C0.914547567,95.4912441 33.2959849,145.677287 51.5727565,174.715732 Z" id="path-12"></path>
                </g>
                <g id="path-12-link" style="mix-blend-mode: soft-light;" transform="translate(67.993651, 92.658670) rotate(-25.000000) translate(-67.993651, -92.658670) translate(37.993651, 5.158670)" fill="url(#linearGradient-6)">
                    <path d="M51.5727565,174.715732 C56.0681302,131.566363 59.9406869,95.4912441 59.9406869,61.6427284 C59.9406869,27.7942129 42.2572966,0.527697572 30.4276173,0.354569515 C18.5979379,0.181441457 0.914547567,27.7942129 0.914547567,61.6427284 C0.914547567,95.4912441 33.2959849,145.677287 51.5727565,174.715732 Z" id="path-12"></path>
                </g>
                <g id="path-12-link" transform="translate(67.993651, 92.658670) rotate(-25.000000) translate(-67.993651, -92.658670) translate(37.993651, 5.158670)" fill="url(#linearGradient-7)">
                    <path d="M51.5727565,174.715732 C56.0681302,131.566363 59.9406869,95.4912441 59.9406869,61.6427284 C59.9406869,27.7942129 42.2572966,0.527697572 30.4276173,0.354569515 C18.5979379,0.181441457 0.914547567,27.7942129 0.914547567,61.6427284 C0.914547567,95.4912441 33.2959849,145.677287 51.5727565,174.715732 Z" id="path-12"></path>
                </g>
                <g id="path-15-link" transform="translate(175.598260, 121.654736) scale(-1, 1) rotate(-33.000000) translate(-175.598260, -121.654736) translate(159.098260, 62.654736)" fill="#166AAC">
                    <path d="M32.0916814,117.773407 C31.2856687,88.6964681 31.4546525,69.6362535 31.2607665,53.3869214 C31.0668814,37.1375894 31.3074172,0.37465858 22.1370095,0.257866632 C12.9666008,0.141074685 0.797650366,29.2533309 0.797650366,52.0874845 C0.797650366,74.9216371 8.07032074,92.3119773 32.0916814,117.773407 Z" id="path-15"></path>
                </g>
                <g id="path-15-link" style="mix-blend-mode: soft-light;" transform="translate(175.598260, 121.654736) scale(-1, 1) rotate(-33.000000) translate(-175.598260, -121.654736) translate(159.098260, 62.654736)" fill="url(#linearGradient-8)" fill-opacity="0.44">
                    <path d="M32.0916814,117.773407 C31.2856687,88.6964681 31.4546525,69.6362535 31.2607665,53.3869214 C31.0668814,37.1375894 31.3074172,0.37465858 22.1370095,0.257866632 C12.9666008,0.141074685 0.797650366,29.2533309 0.797650366,52.0874845 C0.797650366,74.9216371 8.07032074,92.3119773 32.0916814,117.773407 Z" id="path-15"></path>
                </g>
                <path d="M184.760693,176.121667 C183.957339,146.477078 186.120576,125.757301 185.92733,109.190744 C185.734083,92.6241873 183.979015,56.4310218 174.838855,56.3119498 C165.698694,56.1928779 156.172118,82.0393214 156.172118,105.31925 C156.172118,128.599179 160.818565,150.163171 184.760693,176.121667 Z" id="Oval-Copy-3_" fill="url(#linearGradient-5)" fill-rule="nonzero" opacity="0.552964154" transform="translate(171.055864, 116.216604) scale(-1, 1) rotate(-28.000000) translate(-171.055864, -116.216604) "></path>
                <g id="path-17-link" transform="translate(168.153296, 114.210240) scale(-1, 1) rotate(-25.000000) translate(-168.153296, -114.210240) translate(153.153296, 53.710240)" fill="#1785DB">
                    <path d="M28.7329775,120.100159 C27.9296237,90.4555697 30.0928606,69.7357922 29.8996145,53.1692354 C29.7063683,36.6026784 27.9512996,0.409512855 18.8111399,0.290440881 C9.6709791,0.171368907 0.14440253,26.0178125 0.14440253,49.2977417 C0.14440253,72.5776704 4.79084946,94.1416625 28.7329775,120.100159 Z" id="path-17"></path>
                </g>
                <g id="path-17-link" style="mix-blend-mode: soft-light;" transform="translate(168.153296, 114.210240) scale(-1, 1) rotate(-25.000000) translate(-168.153296, -114.210240) translate(153.153296, 53.710240)" fill="url(#linearGradient-6)">
                    <path d="M28.7329775,120.100159 C27.9296237,90.4555697 30.0928606,69.7357922 29.8996145,53.1692354 C29.7063683,36.6026784 27.9512996,0.409512855 18.8111399,0.290440881 C9.6709791,0.171368907 0.14440253,26.0178125 0.14440253,49.2977417 C0.14440253,72.5776704 4.79084946,94.1416625 28.7329775,120.100159 Z" id="path-17"></path>
                </g>
                <g id="path-17-link" transform="translate(168.153296, 114.210240) scale(-1, 1) rotate(-25.000000) translate(-168.153296, -114.210240) translate(153.153296, 53.710240)" fill="url(#linearGradient-7)">
                    <path d="M28.7329775,120.100159 C27.9296237,90.4555697 30.0928606,69.7357922 29.8996145,53.1692354 C29.7063683,36.6026784 27.9512996,0.409512855 18.8111399,0.290440881 C9.6709791,0.171368907 0.14440253,26.0178125 0.14440253,49.2977417 C0.14440253,72.5776704 4.79084946,94.1416625 28.7329775,120.100159 Z" id="path-17"></path>
                </g>
            </g>
            <path d="M1245.664,65.808 L1252.144,52.056 C1252.792,50.832 1253.8,50.4 1255.096,50.4 L1255.672,50.4 C1257.4,50.616 1258.696,51.408 1258.696,52.632 C1258.696,52.992 1258.624,53.352 1258.408,53.712 L1246.888,75.384 C1246.6,76.824 1246.528,77.616 1246.528,78.696 C1246.528,83.808 1247.392,85.104 1249.624,85.104 C1250.632,85.104 1251.28,84.816 1252.36,83.736 C1252.792,83.304 1253.224,83.16 1253.728,83.16 C1254.592,83.16 1255.528,83.736 1256.032,84.456 C1256.464,85.104 1256.68,85.896 1256.68,86.616 C1256.68,87.48 1256.392,88.2 1255.816,88.704 C1253.656,90.576 1251.352,91.296 1248.4,91.296 C1243.936,91.296 1241.416,88.92 1241.056,83.592 C1237.24,89.28 1232.344,91.512 1226.008,91.512 C1216.72,91.512 1211.104,85.176 1211.104,74.808 C1211.104,61.128 1220.752,49.968 1233.424,49.968 C1241.128,49.968 1245.448,54.072 1245.88,62.28 L1245.88,62.784 C1245.88,63.648 1245.736,64.8 1245.664,65.808 Z M1239.04,76.968 L1240.408,74.088 C1240.624,71.64 1240.696,68.544 1240.696,66.6 C1240.696,59.184 1238.32,55.584 1233.064,55.584 C1224.784,55.584 1217.728,64.296 1217.728,74.736 C1217.728,81.792 1221.256,85.752 1226.8,85.752 C1230.76,85.752 1235.8,83.808 1239.04,76.968 Z" id="alpha" fill="#FAFAFA"></path>
        </g>
    </g>
</svg>