<?xml version="1.0" encoding="UTF-8" standalone="no"?>
<svg version = "1.1"
     baseProfile="full"
     width="320px"
     height="331px"
     viewBox="0 0 320 331"
     xmlns="http://www.w3.org/2000/svg"
     xmlns:xlink="http://www.w3.org/1999/xlink"
     preserveAspectRatio="xMinYMin meet">
    <defs>
        <linearGradient x1="100%" y1="100%" x2="13.4384018%" y2="1.50386532%" id="glaceGradient1">
            <stop stop-color="#FFFFFF" offset="0%"></stop>
            <stop stop-color="#FFFFFF" stop-opacity="0" offset="100%"></stop>
        </linearGradient>
        <linearGradient x1="100%" y1="98.6913189%" x2="56.3625321%" y2="58.2295509%" id="glaceGradient2">
            <stop stop-color="#FFFFFF" stop-opacity="0.5" offset="0%"></stop>
            <stop stop-color="#FFFFFF" stop-opacity="0" offset="100%"></stop>
        </linearGradient>
        <linearGradient x1="7.62094843%" y1="100%" x2="40.8662998%" y2="0%" id="glaceGradient3">
            <stop stop-color="#FFFFFF" offset="0%"></stop>
            <stop stop-color="#FFFFFF" stop-opacity="0" offset="100%"></stop>
        </linearGradient>
        <linearGradient x1="9.38344923%" y1="100%" x2="50%" y2="41.1982071%" id="glaceGradient4">
            <stop stop-color="#FFFFFF" stop-opacity="0.5" offset="0%"></stop>
            <stop stop-color="#FFFFFF" stop-opacity="0" offset="100%"></stop>
        </linearGradient>
        <linearGradient x1="75.6601979%" y1="100%" x2="50%" y2="0%" id="glaceGradient5">
            <stop stop-color="#FFFFFF" stop-opacity="0.740772192" offset="0%"></stop>
            <stop stop-color="#FFFFFF" stop-opacity="0" offset="100%"></stop>
        </linearGradient>
        <linearGradient x1="0%" y1="100%" x2="69.790634%" y2="37.5970424%" id="glaceGradient6">
            <stop stop-color="#FFFFFF" stop-opacity="0.740772192" offset="0%"></stop>
            <stop stop-color="#FFFFFF" stop-opacity="0" offset="100%"></stop>
        </linearGradient>
        <linearGradient x1="37.7462394%" y1="100%" x2="50%" y2="13.8766243%" id="glaceGradient7">
            <stop stop-color="#FFFFFF" offset="0%"></stop>
            <stop stop-color="#FFFFFF" stop-opacity="0" offset="100%"></stop>
        </linearGradient>
        <linearGradient x1="89.9990508%" y1="100%" x2="50%" y2="13.8766243%" id="glaceGradient8">
            <stop stop-color="#FFFFFF" offset="0%"></stop>
            <stop stop-color="#FFFFFF" stop-opacity="0" offset="100%"></stop>
        </linearGradient>
        <filter x="-13.8%" y="-7.1%" width="127.7%" height="116.3%" filterUnits="objectBoundingBox" id="filterGradient1">
            <feOffset dx="0" dy="2" in="SourceAlpha" result="shadowOffsetOuter1"></feOffset>
            <feGaussianBlur stdDeviation="5" in="shadowOffsetOuter1" result="shadowBlurOuter1"></feGaussianBlur>
            <feColorMatrix values="0 0 0 0 0   0 0 0 0 0   0 0 0 0 0  0 0 0 0.5 0" type="matrix" in="shadowBlurOuter1"></feColorMatrix>
        </filter>
        <filter x="-41.6%" y="-7.9%" width="173.1%" height="119.4%" filterUnits="objectBoundingBox" id="filterGradient2">
            <feMorphology radius="0.5" operator="dilate" in="SourceAlpha" result="shadowSpreadOuter1"></feMorphology>
            <feOffset dx="-3" dy="4" in="shadowSpreadOuter1" result="shadowOffsetOuter1"></feOffset>
            <feGaussianBlur stdDeviation="6" in="shadowOffsetOuter1" result="shadowBlurOuter1"></feGaussianBlur>
            <feColorMatrix values="0 0 0 0 0   0 0 0 0 0   0 0 0 0 0  0 0 0 0.36 0" type="matrix" in="shadowBlurOuter1"></feColorMatrix>
        </filter>
        <filter x="-37.9%" y="-27.5%" width="166.8%" height="175.1%" filterUnits="objectBoundingBox" id="filterGradient3">
            <feMorphology radius="0.5" operator="dilate" in="SourceAlpha" result="shadowSpreadOuter1"></feMorphology>
            <feOffset dx="-3" dy="6" in="shadowSpreadOuter1" result="shadowOffsetOuter1"></feOffset>
            <feGaussianBlur stdDeviation="6" in="shadowOffsetOuter1" result="shadowBlurOuter1"></feGaussianBlur>
            <feColorMatrix values="0 0 0 0 0   0 0 0 0 0   0 0 0 0 0  0 0 0 0.36 0" type="matrix" in="shadowBlurOuter1"></feColorMatrix>
        </filter>
        <filter x="-2.2%" y="-31.0%" width="104.3%" height="186.9%" filterUnits="objectBoundingBox" id="filterGradient4">
            <feOffset dx="0" dy="2" in="SourceAlpha" result="shadowOffsetOuter1"></feOffset>
            <feGaussianBlur stdDeviation="2" in="shadowOffsetOuter1" result="shadowBlurOuter1"></feGaussianBlur>
            <feColorMatrix values="0 0 0 0 0   0 0 0 0 0   0 0 0 0 0  0 0 0 0.602581522 0" type="matrix" in="shadowBlurOuter1"></feColorMatrix>
        </filter>
        <filter x="-450.0%" y="-450.0%" width="1000.0%" height="1000.0%" filterUnits="objectBoundingBox" id="filterGradient5">
            <feMorphology radius="1" operator="dilate" in="SourceAlpha" result="shadowSpreadOuter1"></feMorphology>
            <feOffset dx="0" dy="0" in="shadowSpreadOuter1" result="shadowOffsetOuter1"></feOffset>
            <feGaussianBlur stdDeviation="2" in="shadowOffsetOuter1" result="shadowBlurOuter1"></feGaussianBlur>
            <feColorMatrix values="0 0 0 0 0.208680733   0 0 0 0 0.595850368   0 0 0 0 0.877737032  0 0 0 1 0" type="matrix" in="shadowBlurOuter1"></feColorMatrix>
        </filter>
        <filter x="-300.0%" y="-300.0%" width="700.0%" height="700.0%" filterUnits="objectBoundingBox" id="filterGradient6">
            <feMorphology radius="1" operator="dilate" in="SourceAlpha" result="shadowSpreadOuter1"></feMorphology>
            <feOffset dx="0" dy="0" in="shadowSpreadOuter1" result="shadowOffsetOuter1"></feOffset>
            <feGaussianBlur stdDeviation="1" in="shadowOffsetOuter1" result="shadowBlurOuter1"></feGaussianBlur>
            <feColorMatrix values="0 0 0 0 0.0882729807   0 0 0 0 0.521661818   0 0 0 0 0.858312075  0 0 0 1 0" type="matrix" in="shadowBlurOuter1"></feColorMatrix>
        </filter>
        <filter x="-600.0%" y="-600.0%" width="1300.0%" height="1300.0%" filterUnits="objectBoundingBox" id="filterGradient7">
            <feMorphology radius="1" operator="dilate" in="SourceAlpha" result="shadowSpreadOuter1"></feMorphology>
            <feOffset dx="0" dy="0" in="shadowSpreadOuter1" result="shadowOffsetOuter1"></feOffset>
            <feGaussianBlur stdDeviation="3" in="shadowOffsetOuter1" result="shadowBlurOuter1"></feGaussianBlur>
            <feColorMatrix values="0 0 0 0 0.22745098   0 0 0 0 0.68627451   0 0 0 0 0.925490196  0 0 0 1 0" type="matrix" in="shadowBlurOuter1"></feColorMatrix>
        </filter>
        <filter x="-750.0%" y="-750.0%" width="1600.0%" height="1600.0%" filterUnits="objectBoundingBox" id="filterGradient8">
            <feMorphology radius="1" operator="dilate" in="SourceAlpha" result="shadowSpreadOuter1"></feMorphology>
            <feOffset dx="0" dy="0" in="shadowSpreadOuter1" result="shadowOffsetOuter1"></feOffset>
            <feGaussianBlur stdDeviation="4" in="shadowOffsetOuter1" result="shadowBlurOuter1"></feGaussianBlur>
            <feColorMatrix values="0 0 0 0 0.505857818   0 0 0 0 0.764740163   0 0 0 0 0.89971301  0 0 0 1 0" type="matrix" in="shadowBlurOuter1"></feColorMatrix>
        </filter>
    </defs>
    <g id="butterfly" stroke="none" stroke-width="1" fill="none" fill-rule="evenodd">
        <g id="butterfly-animation">
            <g id="rigth-c1">
                <path d="M195.186695,249.022018 C183.353801,243.972138 179.323892,221.289992 164.673908,214.703405 C173.857683,210.024461 186.09756,208.176654 195.185551,211.041339 C206.477561,214.704667 210.23245,224.65977 209.696238,231.735352 C209.160026,238.810934 201.559506,251.144413 195.186695,249.022018 Z" id="rigth-c1-path">
                    <animateTransform
                            id="anim11"
                            attributeName="transform"
                            type="rotate"
                            from="0 164.41 214.43"
                            to="6 164.41 214.43"
                            begin="2.3s;anim12.end"
                            dur="5.7s" />
                    <animateTransform
                            id="anim12"
                            attributeName="transform"
                            type="rotate"
                            from="6 164.41 214.43"
                            to="0 164.41 214.43"
                            begin="anim11.end"
                            dur="5.5s" />
                </path>
                <use fill="black" fill-opacity="1" filter="url(#filterGradient3)" xlink:href="#rigth-c1-path"></use>
                <use fill="#000000" xlink:href="#rigth-c1-path"></use>
                <use fill="#1785DB" xlink:href="#rigth-c1-path"></use>
                <use fill="url(#glaceGradient8)" style="mix-blend-mode: soft-light;" xlink:href="#rigth-c1-path"></use>
            </g>
            <g id="left-c1">
                <path d="M125.532443,247.245976 C115.530708,247.245976 109.440002,238.659875 109.440002,231.502138 C109.440002,224.3444 113.211643,215.423515 125.532443,211.515523 C134.569054,208.492666 146.839315,210.126576 156.10335,214.644529 C140.892889,221.036458 147.241178,247.245976 125.532443,247.245976 Z" id="left-c1-path">
                    <animateTransform
                            id="anim9"
                            attributeName="transform"
                            type="rotate"
                            from="0 155.86 214.4"
                            to="-6 155.86 214.4"
                            begin="2.2s;anim10.end"
                            dur="6s" />
                    <animateTransform
                            id="anim10"
                            attributeName="transform"
                            type="rotate"
                            from="-6 155.86 214.4"
                            to="0 155.86 214.4"
                            begin="anim9.end"
                            dur="6s" />
                </path>
                <use fill="black" fill-opacity="1" filter="url(#filterGradient3)" xlink:href="#left-c1-path"></use>
                <use fill="#000000" xlink:href="#left-c1-path"></use>
                <use fill="#1785DB" xlink:href="#left-c1-path"></use>
                <use fill="url(#glaceGradient7)" style="mix-blend-mode: soft-light;" xlink:href="#left-c1-path"></use>
            </g>
            <g id="right-b1">
                <path d="M164.750044,207.960579 C185.449714,177.933686 198.288327,157.776557 209.587468,140.821893 C220.88661,123.867229 245.738873,85.0466646 255.421541,91.1600617 C265.104211,97.2734595 257.96733,136.160929 242.37467,160.17152 C226.782011,184.182109 207.29107,197.522739 164.750044,207.960579 Z" id="right-b1-path">
                    <animateTransform
                            id="anim7"
                            attributeName="transform"
                            type="rotate"
                            from="0 164.43 207.86"
                            to="8 164.43 207.86"
                            begin="2s;anim8.end + 1s"
                            dur="8s" />
                    <animateTransform
                            id="anim8"
                            attributeName="transform"
                            type="rotate"
                            from="8 164.43 207.86"
                            to="0 164.43 207.86"
                            begin="anim7.end"
                            dur="6s" />
                </path>
                <use fill="black" fill-opacity="1" filter="url(#filterGradient2)" xlink:href="#right-b1-path"></use>
                <use fill="#000000" xlink:href="#right-b1-path"></use>
                <use fill="#166AAC" xlink:href="#right-b1-path"></use>
                <use fill-opacity="0.44" fill="url(#glaceGradient6)" style="mix-blend-mode: soft-light;" xlink:href="#right-b1-path"></use>
            </g>
            <g id="left-b1">
                <path d="M156.504896,207.627752 C83.9520763,186.596035 66.9140891,170.991987 43.4995479,144.056638 C20.0850065,117.12129 13.9016785,83.9189488 22.6629876,76.5447338 C31.4242966,69.1705189 63.2034409,79.6390065 86.6179822,106.574355 C110.032523,133.509704 129.940394,170.436526 156.504896,207.627752 Z" id="left-b1-path">
                    <animateTransform
                            id="anim5"
                            attributeName="transform"
                            type="rotate"
                            from="0 156.15 207.42"
                            to="-4 156.15 207.42"
                            begin="3s;anim6.end"
                            dur="6s" />
                    <animateTransform
                            id="anim6"
                            attributeName="transform"
                            type="rotate"
                            from="-4 156.15 207.42"
                            to="0 156.15 207.42"
                            begin="anim5.end"
                            dur="8s" />
                </path>
                <use fill="black" fill-opacity="1" filter="url(#filterGradient2)" xlink:href="#left-b1-path"></use>
                <use fill="#000000" xlink:href="#left-b1-path"></use>
                <use fill="#166AAC" xlink:href="#left-b1-path"></use>
                <use fill-opacity="0.55" fill="url(#glaceGradient5)" style="mix-blend-mode: soft-light;" xlink:href="#left-b1-path"></use>
            </g>
            <g id="right-a1">
                <path d="M164.579886,208.174893 C181.183014,174.950682 189.694046,150.286418 198.682214,131.584053 C207.670381,112.881689 228.820243,72.7280614 239.260641,77.4319514 C249.701039,82.1358414 246.836479,116.517729 234.514293,142.942742 C222.192108,169.367754 205.502787,191.385054 164.579886,208.174893 Z" id="right-a1-path">
                    <animateTransform
                            id="anim3"
                            attributeName="transform"
                            type="rotate"
                            from="0 164.43 207.86"
                            to="6 164.43 207.86"
                            begin="2s;anim4.end + 1s"
                            dur="6s" />
                    <animateTransform
                            id="anim4"
                            attributeName="transform"
                            type="rotate"
                            from="6 164.43 207.86"
                            to="0 164.43 207.86"
                            begin="anim3.end"
                            dur="4s" />
                </path>
                <use fill="black" fill-opacity="1" filter="url(#filterGradient1)" xlink:href="#right-a1-path"></use>
                <use fill="#000000" xlink:href="#right-a1-path"></use>
                <use fill="#1785DB" xlink:href="#right-a1-path"></use>
                <use fill="url(#glaceGradient3)" style="mix-blend-mode: soft-light;" xlink:href="#right-a1-path"></use>
                <use fill="url(#glaceGradient4)" xlink:href="#right-a1-path"></use>
            </g>
            <g id="left-a1">
                <path d="M156.405348,207.819605 C120.196522,184.598168 56.7120644,144.887966 38.8060716,106.48844 C20.9000787,68.0889144 26.4633575,27.3578657 40.0484534,21.2621439 C53.6335494,15.1664221 88.2281786,36.6933058 106.134172,75.0928315 C124.040164,113.492357 138.706812,156.477646 156.405348,207.819605 Z" id="left-a1-path">
                    <animateTransform
                            id="anim1"
                            attributeName="transform"
                            type="rotate"
                            from="0 156.15 207.42"
                            to="-5 156.15 207.42"
                            begin="3s;anim2.end + 2s"
                            dur="4s" />
                    <animateTransform
                            id="anim2"
                            attributeName="transform"
                            type="rotate"
                            from="-5 156.15 207.42"
                            to="0 156.15 207.42"
                            begin="anim1.end"
                            dur="6s" />
                </path>
                <use fill="black" fill-opacity="1" filter="url(#filterGradient1)" xlink:href="#left-a1-path"></use>
                <use fill="#000000" xlink:href="#left-a1-path"></use>
                <use fill="#1785DB" xlink:href="#left-a1-path"></use>
                <use fill="url(#glaceGradient1)" style="mix-blend-mode: soft-light;" xlink:href="#left-a1-path"></use>
                <use fill="url(#glaceGradient2)" xlink:href="#left-a1-path"></use>
            </g>
        </g>
    </g>
    <g id="stars" stroke="none" stroke-width="1" fill="none" fill-rule="evenodd">
        <g id="stars-animation">
            <clipPath id="stars-bg">
                <rect x="10" y="10" width="310" height="321"></rect>
            </clipPath>
            <g id="star01" clip-path="url(#stars-bg)" mask="none">
                <path id="track01" d="M137.282676,132.921947 C179.958963,82.9120352 199.065037,30.4896233 179.957286,15.8332129 C160.849535,1.17680247 110.763675,29.836478 68.0873872,79.8463898 C25.4110994,129.856302 6.30502562,182.278714 25.4127769,196.935124 C44.5205282,211.591534 94.6063879,182.931859 137.282676,132.921947 Z" stroke="transparent" stroke-width="2"></path>
                <circle id="star01-path" r="1">
                    <animateMotion
                            id="starAnim01"
                            begin="+2s"
                            dur="14.2s"
                            repeatCount="indefinite"
                            rotate="0"
                            restart="whenNotActive"
                            fill="freeze" >
                        <mpath xlink:href="#track01" />
                    </animateMotion>
                    <animate id="starOpacityAnim11"
                             attributeName="opacity"
                             begin="+2s;starOpacityAnim13.end"
                             from="0"
                             to="1"
                             dur="9s" />
                    <animate id="starOpacityAnim12"
                             attributeName="opacity"
                             from="1"
                             to="0"
                             dur="3s"
                             begin="starOpacityAnim11.end" />
                    <animate id="starOpacityAnim13"
                             attributeName="opacity"
                             from="0"
                             to="0"
                             dur="2.2s"
                             begin="starOpacityAnim12.end" />
                </circle>
                <use fill="black" fill-opacity="1" filter="url(#filterGradient5)" xlink:href="#star01-path"></use>
                <use fill="#4FAEEC" fill-rule="evenodd" xlink:href="#star01-path"></use>
            </g>
            <g id="star02" clip-path="url(#stars-bg)" mask="none">
                <path id="track02" d="M234.882694,145.328331 C206.443157,85.2350245 155.557948,39.0396666 121.227399,42.1481114 C86.8968508,45.2565561 82.1212427,96.4916987 110.56078,156.585005 C139.000318,216.678312 189.885527,262.87367 224.216075,259.765225 C258.546624,256.65678 263.322232,205.421638 234.882694,145.328331 Z" stroke="transparent" stroke-width="2"></path>
                <circle id="star02-path" r="1">
                    <animateMotion
                            id="starAnim02"
                            begin="+1s"
                            dur="9.5s"
                            repeatCount="indefinite"
                            rotate="0"
                            restart="whenNotActive"
                            fill="freeze" >
                        <mpath xlink:href="#track02" />
                    </animateMotion>
                    <animate id="starOpacityAnim21"
                             attributeName="opacity"
                             begin="+1s;starOpacityAnim23.end"
                             from="1"
                             to="0"
                             dur="3s" />
                    <animate id="starOpacityAnim22"
                             attributeName="opacity"
                             from="0"
                             to="0"
                             dur="3s"
                             begin="starOpacityAnim21.end" />
                    <animate id="starOpacityAnim23"
                             attributeName="opacity"
                             from="0"
                             to="1"
                             dur="3.5s"
                             begin="starOpacityAnim22.end" />
                </circle>
                <use fill="black" fill-opacity="1" filter="url(#filterGradient6)" xlink:href="#star02-path"></use>
                <use fill="#18BEEE" fill-rule="evenodd" xlink:href="#star02-path"></use>
            </g>
            <g id="star03" clip-path="url(#stars-bg)" mask="none">
                <path id="track03" d="M219.668495,181.995376 C256.731676,208.527865 295.442864,218.189745 306.132353,203.575788 C316.821842,188.96183 295.44174,155.606045 258.378559,129.073556 C221.315378,102.541067 182.60419,92.8791875 171.914701,107.493145 C161.225212,122.107102 182.605314,155.462887 219.668495,181.995376 Z" stroke="transparent" stroke-width="2"></path>
                <circle id="star03-path" r="1">
                    <animateMotion
                            id="starAnim03"
                            begin="+2s"
                            dur="12s"
                            repeatCount="indefinite"
                            rotate="0"
                            restart="whenNotActive"
                            fill="freeze" >
                        <mpath xlink:href="#track03" />
                    </animateMotion>
                    <animate id="starOpacityAnim31"
                             attributeName="opacity"
                             begin="+2s;starOpacityAnim33.end"
                             from="0"
                             to="1"
                             dur="7s" />
                    <animate id="starOpacityAnim32"
                             attributeName="opacity"
                             from="1"
                             to="0"
                             dur="3.5s"
                             begin="starOpacityAnim31.end" />
                    <animate id="starOpacityAnim33"
                             attributeName="opacity"
                             from="0"
                             to="0"
                             dur="1.7s"
                             begin="starOpacityAnim32.end" />
                </circle>
                <use fill="black" fill-opacity="1" filter="url(#filterGradient7)" xlink:href="#star03-path"></use>
                <use fill="#89C9F2" fill-rule="evenodd" xlink:href="#star03-path"></use>
            </g>
            <g id="star04" clip-path="url(#stars-bg)" mask="none">
                <path id="track04" d="M230.723878,138.6575 C252.110486,182.515105 283.444939,213.005493 300.711338,206.759688 C317.977738,200.513883 314.637649,159.897044 293.251042,116.03944 C271.864434,72.1818353 240.529981,41.6914474 223.263582,47.9372523 C205.997182,54.1830572 209.337271,94.7998958 230.723878,138.6575 Z" stroke="transparent" stroke-width="2"></path>
                <circle id="star04-path" r="1">
                    <animateMotion
                            id="starAnim04"
                            begin="+0s"
                            dur="7s"
                            repeatCount="indefinite"
                            rotate="0"
                            restart="whenNotActive"
                            fill="freeze" >
                        <mpath xlink:href="#track04" />
                    </animateMotion>
                    <animate id="starOpacityAnim41"
                             attributeName="opacity"
                             begin="+0s;starOpacityAnim43.end"
                             from="0"
                             to="1"
                             dur="5s" />
                    <animate id="starOpacityAnim42"
                             attributeName="opacity"
                             from="1"
                             to="0"
                             dur="1s"
                             begin="starOpacityAnim41.end" />
                    <animate id="starOpacityAnim43"
                             attributeName="opacity"
                             from="0"
                             to="0"
                             dur="1s"
                             begin="starOpacityAnim42.end" />
                </circle>
                <use fill="black" fill-opacity="1" filter="url(#filterGradient8)" xlink:href="#star04-path"></use>
                <use fill="#89C9F2" fill-rule="evenodd" xlink:href="#star04-path"></use>
            </g>
        </g>
    </g>
    <g id="header" fill="none" transform="translate(54.000000, 285.000000)">
        <use fill="black" fill-opacity="1" filter="url(#filterGradient4)" xlink:href="#header-path"></use>
        <path d="M0,0.152777778 L3.19641159,0.152777778 C4.67923971,0.152777778 5.75083698,0.366179 6.41123563,0.79299 C7.07163428,1.21979978 7.40182867,1.89395433 7.40182867,2.81547567 C7.40182867,3.43629 7.23980012,3.95281944 6.91573837,4.36507989 C6.59167663,4.77733911 6.12523105,5.03681567 5.51638773,5.14351811 L5.51638773,5.21626967 C6.27253189,5.356923 6.82858402,5.63458744 7.18456101,6.04927278 C7.540538,6.46395689 7.71852382,7.02534922 7.71852382,7.73346567 C7.71852382,8.68893789 7.3809645,9.43705644 6.70583576,9.97784333 C6.03070713,10.5186314 5.09167846,10.7890212 3.88872192,10.7890212 L0,10.7890212 L0,0.152777778 Z M1.76023584,4.54695756 L3.45418672,4.54695756 C4.19069079,4.54695756 4.72833059,4.43176922 5.06712244,4.20138889 C5.4059144,3.97100856 5.57530776,3.57936822 5.57530776,3.02645444 C5.57530776,2.52689311 5.39241195,2.16556511 5.02661497,1.94246067 C4.66081799,1.719355 4.08021602,1.607804 3.28479157,1.607804 L1.76023584,1.607804 L1.76023584,4.54695756 Z M1.76023584,5.95833333 L1.76023584,9.32671911 L3.6309468,9.32671911 C4.36745086,9.32671911 4.92350299,9.18728067 5.29912007,8.90839889 C5.67473715,8.62951833 5.86254284,8.18937656 5.86254284,7.58796256 C5.86254284,7.03505 5.67105469,6.62522178 5.28807256,6.35846567 C4.90509043,6.09170956 4.32326105,5.95833333 3.5425667,5.95833333 L1.76023584,5.95833333 Z M26.7775165,0.152777778 L26.7775165,7.03505244 C26.7775165,7.82077144 26.6068956,8.50826411 26.2656487,9.09755244 C25.9244018,9.686842 25.4309516,10.1403207 24.785283,10.4580031 C24.1396144,10.7756856 23.3675243,10.9345243 22.4689893,10.9345243 C21.133462,10.9345243 20.095007,10.5853208 19.3535928,9.88690511 C18.6121787,9.18848822 18.2414772,8.22818089 18.2414772,7.00595256 L18.2414772,0.152777778 L20.0090781,0.152777778 L20.0090781,6.88227467 C20.0090781,7.76014556 20.2152962,8.40762633 20.6277384,8.82473533 C21.0401808,9.24184556 21.6735646,9.450397 22.5279094,9.450397 C24.1874985,9.450397 25.0172806,8.589515 25.0172806,6.86772533 L25.0172806,0.152777778 L26.7775165,0.152777778 Z M41.6310921,10.7890212 L39.8708562,10.7890212 L39.8708562,1.64417978 L36.7039047,1.64417978 L36.7039047,0.152777778 L44.7980437,0.152777778 L44.7980437,1.64417978 L41.6310921,1.64417978 L41.6310921,10.7890212 Z M58.8488338,10.7890212 L57.088598,10.7890212 L57.088598,1.64417978 L53.9216465,1.64417978 L53.9216465,0.152777778 L62.0157855,0.152777778 L62.0157855,1.64417978 L58.8488338,1.64417978 L58.8488338,10.7890212 Z M78.1361413,10.7890212 L72.045284,10.7890212 L72.045284,0.152777778 L78.1361413,0.152777778 L78.1361413,1.62235456 L73.8055196,1.62235456 L73.8055196,4.51785767 L77.8636361,4.51785767 L77.8636361,5.97288389 L73.8055196,5.97288389 L73.8055196,9.31216978 L78.1361413,9.31216978 L78.1361413,10.7890212 Z M90.6034555,5.09986767 L91.826047,5.09986767 C92.6460213,5.09986767 93.2401258,4.949516 93.6083781,4.648809 C93.9766293,4.348102 94.1607526,3.90189922 94.1607526,3.31018478 C94.1607526,2.70877078 93.9619002,2.27711733 93.5641871,2.01521222 C93.1664753,1.75330589 92.5674607,1.62235456 91.7671269,1.62235456 L90.6034555,1.62235456 L90.6034555,5.09986767 Z M90.6034555,6.54034333 L90.6034555,10.7890212 L88.8432199,10.7890212 L88.8432199,0.152777778 L91.8849672,0.152777778 C93.2745049,0.152777778 94.3031398,0.409829444 94.9709031,0.923941333 C95.6386675,1.43805322 95.9725443,2.21406044 95.9725443,3.25198378 C95.9725443,4.57606478 95.27533,5.51939789 93.8808822,6.08201 L96.9226294,10.7890212 L94.9193481,10.7890212 L92.3415968,6.54034333 L90.6034555,6.54034333 Z M108.609254,10.7890212 L106.863747,10.7890212 L106.863747,0.152777778 L112.939876,0.152777778 L112.939876,1.62235456 L108.609254,1.62235456 L108.609254,4.94708989 L112.66737,4.94708989 L112.66737,6.42394133 L108.609254,6.42394133 L108.609254,10.7890212 Z M123.271339,10.7890212 L123.271339,0.152777778 L125.031575,0.152777778 L125.031575,9.29761922 L129.590512,9.29761922 L129.590512,10.7890212 L123.271339,10.7890212 Z M142.418712,5.00529089 L144.967003,0.152777778 L146.881904,0.152777778 L143.295147,6.66402122 L143.295147,10.7890212 L141.527546,10.7890212 L141.527546,6.72222222 L137.95552,0.152777778 L139.87042,0.152777778 L142.418712,5.00529089 Z M155.335291,9.87962922 C155.335291,9.525571 155.42858,9.25396878 155.615161,9.06481522 C155.801743,8.87566044 156.07179,8.78108489 156.425312,8.78108489 C156.783744,8.78108489 157.056247,8.87929778 157.242827,9.07572722 C157.429408,9.27215667 157.522698,9.54012156 157.522698,9.87962922 C157.522698,10.2239879 157.428181,10.4968026 157.239144,10.6980818 C157.050108,10.8993622 156.778834,11 156.425312,11 C156.07179,11 155.801743,10.9005747 155.615161,10.7017191 C155.42858,10.5028648 155.335291,10.2288377 155.335291,9.87962922 Z M172.133228,1.491402 C171.121763,1.491402 170.32635,1.84545533 169.746966,2.55357178 C169.167584,3.26168822 168.877897,4.238971 168.877897,5.48544944 C168.877897,6.79013011 169.156537,7.77711244 169.713825,8.44642822 C170.271112,9.115744 171.077572,9.450397 172.133228,9.450397 C172.58986,9.450397 173.031756,9.40553411 173.458928,9.31580711 C173.886101,9.22608011 174.330451,9.11089178 174.791994,8.97023844 L174.791994,10.4616404 C173.94747,10.776898 172.990029,10.9345243 171.919643,10.9345243 C170.343524,10.9345243 169.13322,10.4628578 168.288696,9.51951 C167.444172,8.57616344 167.021915,7.22664067 167.021915,5.47089889 C167.021915,4.36507378 167.226906,3.39749056 167.636893,2.56812111 C168.04688,1.73875289 168.639758,1.10339778 169.415542,0.662037444 C170.191325,0.220677111 171.102122,0 172.147958,0 C173.247804,0 174.264164,0.227951778 175.197069,0.683862667 L174.563679,2.13161422 C174.200337,1.96185978 173.816133,1.81272056 173.411056,1.68419289 C173.005978,1.55566522 172.580041,1.491402 172.133228,1.491402 Z M190.14639,10.7890212 L187.023628,1.90608489 L186.964708,1.90608489 C187.048179,3.22531489 187.089914,4.46207544 187.089914,5.616402 L187.089914,10.7890212 L185.491708,10.7890212 L185.491708,0.152777778 L187.973714,0.152777778 L190.963906,8.61375656 L191.008096,8.61375656 L194.086666,0.152777778 L196.576038,0.152777778 L196.576038,10.7890212 L194.882088,10.7890212 L194.882088,5.52910111 C194.882088,5.00043867 194.89559,4.31173233 194.922594,3.46296256 C194.9496,2.61419278 194.972922,2.10008944 194.992563,1.92063544 L194.933643,1.92063544 L191.700406,10.7890212 L190.14639,10.7890212 Z M214,7.900794 C214,8.84656544 213.653848,9.58862178 212.961534,10.1269838 C212.26922,10.665347 211.314235,10.9345243 210.096548,10.9345243 C208.878861,10.9345243 207.882141,10.7477969 207.106356,10.3743383 L207.106356,8.73015856 C207.597359,8.958114 208.119042,9.13756556 208.67142,9.26851811 C209.223798,9.39947189 209.738115,9.46494756 210.214388,9.46494756 C210.911611,9.46494756 211.42593,9.33399622 211.757356,9.07208989 C212.088783,8.81018356 212.254495,8.45855633 212.254495,8.017196 C212.254495,7.61948611 212.102286,7.28240822 211.797864,7.00595256 C211.493442,6.72949567 210.864968,6.40211856 209.912423,6.023809 C208.930417,5.63095011 208.238114,5.18232122 207.835492,4.67791011 C207.43287,4.17349778 207.231562,3.56724378 207.231562,2.85912733 C207.231562,1.97155689 207.550708,1.273151 208.189012,0.763888889 C208.827316,0.254626778 209.684103,0 210.759398,0 C211.790504,0 212.816685,0.223102 213.83797,0.669312111 L213.278229,2.08796256 C212.320774,1.69025389 211.466442,1.491402 210.715208,1.491402 C210.145645,1.491402 209.713569,1.61386622 209.418967,1.85879589 C209.124367,2.10372678 208.977068,2.42746656 208.977068,2.83002622 C208.977068,3.10648311 209.035987,3.342922 209.153827,3.53935144 C209.271669,3.73578089 209.465611,3.92129589 209.735662,4.09589889 C210.005715,4.27050311 210.491799,4.500881 211.193933,4.78703744 C211.984448,5.11199456 212.563822,5.41512156 212.932075,5.69642822 C213.300327,5.97773489 213.570374,6.29541244 213.742225,6.64947067 C213.914075,7.00352889 214,7.420633 214,7.900794 Z" id="header-path"></path>
        <use fill="#000000" xlink:href="#header-path"></use>
        <use fill="#FAFAFA" xlink:href="#header-path"></use>
    </g>
    <g id="slogan" fill="none" transform="translate(54.000000, 308.000000)">
        <use fill="black" fill-opacity="1" filter="url(#filterGradient4)" xlink:href="#slogan-path"></use>
        <path d="M0,7.893688 L0,0.122258667 L0.767503912,0.122258667 L0.767503912,7.893688 L0,7.893688 Z M8.21705245,7.893688 L7.34119519,7.893688 L3.73392686,1.371428 L3.69780911,1.371428 C3.74596638,2.13688133 3.77004472,2.83853467 3.77004472,3.476412 L3.77004472,7.893688 L3.06123236,7.893688 L3.06123236,0.122258667 L3.92806022,0.122258667 L7.52629903,6.61794 L7.56241689,6.61794 C7.55639713,6.52225867 7.54285308,6.21484267 7.52178427,5.69568133 C7.50071545,5.17652 7.49319093,4.80531733 7.49921069,4.58206 L7.49921069,0.122258667 L8.21705245,0.122258667 L8.21705245,7.893688 Z M15.6711159,7.893688 L14.7952585,7.893688 L11.1879903,1.371428 L11.1518724,1.371428 C11.2000298,2.13688133 11.224108,2.83853467 11.224108,3.476412 L11.224108,7.893688 L10.5152957,7.893688 L10.5152957,0.122258667 L11.3821236,0.122258667 L14.9803623,6.61794 L15.0164802,6.61794 C15.0104605,6.52225867 14.9969165,6.21484267 14.9758477,5.69568133 C14.9547788,5.17652 14.9472544,4.80531733 14.953274,4.58206 L14.953274,0.122258667 L15.6711159,0.122258667 L15.6711159,7.893688 Z M23.6985497,3.99734267 C23.6985497,5.24120267 23.431431,6.21926533 22.8971855,6.93156133 C22.3629398,7.64385733 21.6202744,8 20.6691668,8 C19.6969904,8 18.9468004,7.65005867 18.4185745,6.95016667 C17.8903486,6.25027333 17.6262396,5.26246533 17.6262396,3.98671067 C17.6262396,2.721588 17.8911011,1.74086667 18.4208319,1.04451867 C18.9505627,0.348169333 19.7030099,0 20.6781962,0 C21.626294,0 22.3667022,0.354370667 22.8994427,1.06312267 C23.4321834,1.77187467 23.6985497,2.74993867 23.6985497,3.99734267 Z M18.4388908,3.99734267 C18.4388908,5.04983867 18.62926,5.84805867 19.010004,6.39202667 C19.390748,6.93599333 19.9437967,7.20797333 20.6691668,7.20797333 C21.4005564,7.20797333 21.9528528,6.93688 22.3260723,6.394684 C22.6992916,5.85248933 22.8858986,5.05338267 22.8858986,3.99734267 C22.8858986,2.95193333 22.7000441,2.159028 22.3283295,1.618604 C21.9566151,1.07818133 21.4065761,0.807973333 20.6781962,0.807973333 C19.9468065,0.807973333 19.390748,1.07995333 19.010004,1.62392 C18.62926,2.167888 18.4388908,2.95902 18.4388908,3.99734267 Z M29.3331774,0.122258667 L30.1593728,0.122258667 L27.7801108,7.893688 L27.0216363,7.893688 L24.6559185,0.122258667 L25.4685697,0.122258667 L26.9855186,5.15083067 C27.1600889,5.728464 27.2985392,6.29014133 27.4008736,6.83588 C27.5092275,6.26179067 27.6506877,5.68948267 27.8252581,5.11893733 L29.3331774,0.122258667 Z M35.3289834,7.893688 L34.5073028,5.42192667 L31.8616718,5.42192667 L31.0490206,7.893688 L30.2724873,7.893688 L32.8820005,0.0903653333 L33.5276066,0.0903653333 L36.1235757,7.893688 L35.3289834,7.893688 Z M34.2680222,4.60863733 L33.5005183,2.200664 C33.4011937,1.89590133 33.298861,1.52204 33.1935167,1.07906933 C33.1273004,1.41927067 33.032492,1.793132 32.9090888,2.200664 L32.1325555,4.60863733 L34.2680222,4.60863733 Z M38.9003801,7.893688 L38.1328762,7.893688 L38.1328762,0.924917333 L36.0425568,0.924917333 L36.0425568,0.122258667 L40.9906994,0.122258667 L40.9906994,0.924917333 L38.9003801,0.924917333 L38.9003801,7.893688 Z M42.467262,7.893688 L42.467262,0.122258667 L43.2347659,0.122258667 L43.2347659,7.893688 L42.467262,7.893688 Z M49.2982928,0.122258667 L50.1244881,0.122258667 L47.7452262,7.893688 L46.9867517,7.893688 L44.6210338,0.122258667 L45.433685,0.122258667 L46.9506339,5.15083067 C47.1252043,5.728464 47.2636545,6.29014133 47.365989,6.83588 C47.4743429,6.26179067 47.615803,5.68948267 47.7903734,5.11893733 L49.2982928,0.122258667 Z M55.1947747,7.893688 L51.5152709,7.893688 L51.5152709,0.122258667 L55.1947747,0.122258667 L55.1947747,0.924917333 L52.2827748,0.924917333 L52.2827748,3.428572 L55.0187004,3.428572 L55.0187004,4.22591333 L52.2827748,4.22591333 L52.2827748,7.08571467 L55.1947747,7.08571467 L55.1947747,7.893688 Z M62.8522471,0.818604 C62.1268772,0.818604 61.5542647,1.10298667 61.1343929,1.67176133 C60.714521,2.24053467 60.5045882,3.019264 60.5045882,4.00797333 C60.5045882,5.02503333 60.7069965,5.81084933 61.1118193,6.365448 C61.5166419,6.92004667 62.0937689,7.19734267 62.8432177,7.19734267 C63.3037223,7.19734267 63.8289305,7.09989067 64.4188583,6.904984 L64.4188583,7.69700933 C63.9613632,7.899004 63.3970278,8 62.7258347,8 C61.7536583,8 61.0034684,7.652716 60.4752425,6.95814 C59.9470166,6.26356267 59.6829075,5.27664 59.6829075,3.99734267 C59.6829075,3.196452 59.8100711,2.49479867 60.0644021,1.89235867 C60.3187331,1.28992 60.6859274,0.825693333 61.165996,0.499668 C61.6460646,0.173641333 62.2111524,0.0106306667 62.8612767,0.0106306667 C63.5535385,0.0106306667 64.1585064,0.159466667 64.6761978,0.457142667 L64.3511369,1.23322267 C63.8515046,0.956809333 63.3518796,0.818604 62.8522471,0.818604 Z M71.8864652,3.99734267 C71.8864652,5.24120267 71.6193473,6.21926533 71.0851008,6.93156133 C70.5508555,7.64385733 69.8081896,8 68.8570831,8 C67.8849065,8 67.1347157,7.65005867 66.6064904,6.95016667 C66.0782639,6.25027333 65.8141548,5.26246533 65.8141548,3.98671067 C65.8141548,2.721588 66.079017,1.74086667 66.6087473,1.04451867 C67.1384788,0.348169333 67.8909254,0 68.8661119,0 C69.8142096,0 70.5546174,0.354370667 71.0873589,1.06312267 C71.6200992,1.77187467 71.8864652,2.74993867 71.8864652,3.99734267 Z M66.6268061,3.99734267 C66.6268061,5.04983867 66.8171762,5.84805867 67.1979198,6.39202667 C67.5786634,6.93599333 68.1317123,7.20797333 68.8570831,7.20797333 C69.5884727,7.20797333 70.1407685,6.93688 70.5139883,6.394684 C70.8872069,5.85248933 71.0738139,5.05338267 71.0738139,3.99734267 C71.0738139,2.95193333 70.88796,2.159028 70.5162452,1.618604 C70.1445304,1.07818133 69.5944915,0.807973333 68.8661119,0.807973333 C68.1347223,0.807973333 67.5786634,1.07995333 67.1979198,1.62392 C66.8171762,2.167888 66.6268061,2.95902 66.6268061,3.99734267 Z M78.9974096,7.893688 L78.1215519,7.893688 L74.5142843,1.371428 L74.4781666,1.371428 C74.5263231,2.13688133 74.5504019,2.83853467 74.5504019,3.476412 L74.5504019,7.893688 L73.8415896,7.893688 L73.8415896,0.122258667 L74.7084174,0.122258667 L78.3066562,6.61794 L78.3427738,6.61794 C78.3367538,6.52225867 78.32321,6.21484267 78.3021412,5.69568133 C78.2810724,5.17652 78.2735486,4.80531733 78.2795674,4.58206 L78.2795674,0.122258667 L78.9974096,0.122258667 L78.9974096,7.893688 Z M83.3272804,7.893688 L82.5597767,7.893688 L82.5597767,0.924917333 L80.4694576,0.924917333 L80.4694576,0.122258667 L85.4175994,0.122258667 L85.4175994,0.924917333 L83.3272804,0.924917333 L83.3272804,7.893688 Z M90.5736665,7.893688 L86.8941624,7.893688 L86.8941624,0.122258667 L90.5736665,0.122258667 L90.5736665,0.924917333 L87.6616661,0.924917333 L87.6616661,3.428572 L90.3975922,3.428572 L90.3975922,4.22591333 L87.6616661,4.22591333 L87.6616661,7.08571467 L90.5736665,7.08571467 L90.5736665,7.893688 Z M97.6755809,7.893688 L96.7997232,7.893688 L93.1924556,1.371428 L93.156338,1.371428 C93.2044944,2.13688133 93.2285732,2.83853467 93.2285732,3.476412 L93.2285732,7.893688 L92.519761,7.893688 L92.519761,0.122258667 L93.3865887,0.122258667 L96.9848275,6.61794 L97.0209451,6.61794 C97.0149251,6.52225867 97.0013813,6.21484267 96.9803125,5.69568133 C96.9592437,5.17652 96.9517199,4.80531733 96.9577387,4.58206 L96.9577387,0.122258667 L97.6755809,0.122258667 L97.6755809,7.893688 Z M102.005452,7.893688 L101.237948,7.893688 L101.237948,0.924917333 L99.1476289,0.924917333 L99.1476289,0.122258667 L104.095772,0.122258667 L104.095772,0.924917333 L102.005452,0.924917333 L102.005452,7.893688 Z M111.378522,7.893688 L109.139216,1.00465067 L109.103098,1.00465067 C109.145236,1.55039067 109.166305,2.19888933 109.166305,2.95016667 L109.166305,7.893688 L108.457492,7.893688 L108.457492,0.122258667 L109.613262,0.122258667 L111.703581,6.53289067 L111.7397,6.53289067 L113.848078,0.122258667 L114.994819,0.122258667 L114.994819,7.893688 L114.227316,7.893688 L114.227316,2.88637867 C114.227316,2.31228933 114.248383,1.68859733 114.290521,1.01528267 L114.254403,1.01528267 L111.997039,7.893688 L111.378522,7.893688 Z M121.437583,7.893688 L120.615903,5.42192667 L117.970272,5.42192667 L117.157621,7.893688 L116.381087,7.893688 L118.9906,0.0903653333 L119.636206,0.0903653333 L122.232175,7.893688 L121.437583,7.893688 Z M120.376622,4.60863733 L119.609118,2.200664 C119.509793,1.89590133 119.40746,1.52204 119.302116,1.07906933 C119.2359,1.41927067 119.141092,1.793132 119.017689,2.200664 L118.241155,4.60863733 L120.376622,4.60863733 Z M128.778778,7.893688 L127.90292,7.893688 L124.295653,1.371428 L124.259535,1.371428 C124.307693,2.13688133 124.33177,2.83853467 124.33177,3.476412 L124.33177,7.893688 L123.622958,7.893688 L123.622958,0.122258667 L124.489786,0.122258667 L128.088025,6.61794 L128.124142,6.61794 C128.118123,6.52225867 128.104578,6.21484267 128.08351,5.69568133 C128.062441,5.17652 128.054917,4.80531733 128.060937,4.58206 L128.060937,0.122258667 L128.778778,0.122258667 L128.778778,7.893688 Z M135.226057,7.893688 L134.404377,5.42192667 L131.758746,5.42192667 L130.946094,7.893688 L130.169561,7.893688 L132.779074,0.0903653333 L133.42468,0.0903653333 L136.020649,7.893688 L135.226057,7.893688 Z M134.165096,4.60863733 L133.397592,2.200664 C133.298267,1.89590133 133.195935,1.52204 133.09059,1.07906933 C133.024374,1.41927067 132.929566,1.793132 132.806163,2.200664 L132.029629,4.60863733 L134.165096,4.60863733 Z M140.129299,3.82192667 L142.373119,3.82192667 L142.373119,7.60132933 C142.023978,7.732448 141.668823,7.831672 141.307643,7.89900267 C140.946463,7.96633467 140.528102,8 140.052549,8 C139.053284,8 138.275253,7.65005867 137.718434,6.95016667 C137.161614,6.25027333 136.883209,5.269552 136.883209,4.00797333 C136.883209,3.199996 137.020906,2.49214 137.296306,1.88438533 C137.571707,1.27663067 137.968246,0.812405333 138.485938,0.491694667 C139.003629,0.170984 139.610102,0.0106306667 140.305374,0.0106306667 C141.009674,0.0106306667 141.665808,0.163010667 142.273795,0.467774667 L141.975823,1.265116 C141.379876,0.96744 140.806511,0.818604 140.255711,0.818604 C139.452086,0.818604 138.824545,1.10032933 138.373069,1.663788 C137.921594,2.22724533 137.69586,3.00863333 137.69586,4.00797333 C137.69586,5.05692667 137.913317,5.85248933 138.348238,6.394684 C138.783159,6.93688 139.421987,7.20797333 140.264741,7.20797333 C140.722236,7.20797333 141.169189,7.14595867 141.605615,7.02192667 L141.605615,4.6299 L140.129299,4.6299 L140.129299,3.82192667 Z M148.120615,7.893688 L144.441111,7.893688 L144.441111,0.122258667 L148.120615,0.122258667 L148.120615,0.924917333 L145.208615,0.924917333 L145.208615,3.428572 L147.944541,3.428572 L147.944541,4.22591333 L145.208615,4.22591333 L145.208615,7.08571467 L148.120615,7.08571467 L148.120615,7.893688 Z M152.987739,7.893688 L150.748433,1.00465067 L150.712315,1.00465067 C150.754453,1.55039067 150.775522,2.19888933 150.775522,2.95016667 L150.775522,7.893688 L150.06671,7.893688 L150.06671,0.122258667 L151.22248,0.122258667 L153.312799,6.53289067 L153.348917,6.53289067 L155.457295,0.122258667 L156.604036,0.122258667 L156.604036,7.893688 L155.836533,7.893688 L155.836533,2.88637867 C155.836533,2.31228933 155.8576,1.68859733 155.899739,1.01528267 L155.86362,1.01528267 L153.606257,7.893688 L152.987739,7.893688 Z M162.577269,7.893688 L158.897765,7.893688 L158.897765,0.122258667 L162.577269,0.122258667 L162.577269,0.924917333 L159.665268,0.924917333 L159.665268,3.428572 L162.401194,3.428572 L162.401194,4.22591333 L159.665268,4.22591333 L159.665268,7.08571467 L162.577269,7.08571467 L162.577269,7.893688 Z M169.679183,7.893688 L168.803325,7.893688 L165.196058,1.371428 L165.15994,1.371428 C165.208097,2.13688133 165.232175,2.83853467 165.232175,3.476412 L165.232175,7.893688 L164.523363,7.893688 L164.523363,0.122258667 L165.390191,0.122258667 L168.98843,6.61794 L169.024547,6.61794 C169.018527,6.52225867 169.004983,6.21484267 168.983915,5.69568133 C168.962846,5.17652 168.955322,4.80531733 168.961341,4.58206 L168.961341,0.122258667 L169.679183,0.122258667 L169.679183,7.893688 Z M174.009054,7.893688 L173.24155,7.893688 L173.24155,0.924917333 L171.151231,0.924917333 L171.151231,0.122258667 L176.099374,0.122258667 L176.099374,0.924917333 L174.009054,0.924917333 L174.009054,7.893688 Z M184.185745,5.82591333 C184.185745,6.50986 183.97506,7.043188 183.553683,7.42591333 C183.132307,7.80864 182.560446,8 181.838086,8 C181.055529,8 180.453572,7.88128533 180.032195,7.64385333 L180.032195,6.77209333 C180.30308,6.906756 180.598039,7.01306667 180.917082,7.09102933 C181.236124,7.168992 181.552152,7.20797333 181.865175,7.20797333 C182.376847,7.20797333 182.762099,7.09368933 183.020945,6.865116 C183.279791,6.636544 183.409211,6.318496 183.409211,5.910964 C183.409211,5.64163733 183.363313,5.42104133 183.271513,5.24916933 C183.179713,5.07729733 183.026213,4.918716 182.81101,4.77342133 C182.595807,4.628128 182.268493,4.46334533 181.829056,4.27906933 C181.215051,4.02037467 180.776374,3.713844 180.513013,3.359468 C180.249653,3.005092 180.117975,2.54263867 180.117975,1.97209333 C180.117975,1.37319733 180.309097,0.896569333 180.691345,0.542193333 C181.073594,0.187816 181.579238,0.0106306667 182.208294,0.0106306667 C182.864438,0.0106306667 183.4679,0.15238 184.018701,0.43588 L183.77942,1.222592 C183.23464,0.953265333 182.704917,0.818604 182.190235,0.818604 C181.783908,0.818604 181.466375,0.921372 181.237627,1.12691067 C181.00888,1.332448 180.894508,1.61771733 180.894508,1.982724 C180.894508,2.25205067 180.936645,2.47264533 181.02092,2.64451867 C181.105195,2.81639067 181.247408,2.97408533 181.447562,3.117608 C181.647716,3.26113067 181.953962,3.41971067 182.366309,3.593356 C183.058571,3.883944 183.534871,4.19579067 183.795221,4.528904 C184.055571,4.86201733 184.185745,5.29434933 184.185745,5.82591333 Z M187.698451,4.00797333 L189.459195,0.122258667 L190.289905,0.122258667 L188.086717,4.87973467 L188.086717,7.893688 L187.310183,7.893688 L187.310183,4.92225867 L185.111511,0.122258667 L185.95125,0.122258667 L187.698451,4.00797333 Z M195.405338,5.82591333 C195.405338,6.50986 195.194654,7.043188 194.773276,7.42591333 C194.3519,7.80864 193.78004,8 193.05768,8 C192.275122,8 191.673165,7.88128533 191.251788,7.64385333 L191.251788,6.77209333 C191.522674,6.906756 191.817632,7.01306667 192.136675,7.09102933 C192.455718,7.168992 192.771745,7.20797333 193.084768,7.20797333 C193.59644,7.20797333 193.981693,7.09368933 194.240538,6.865116 C194.499384,6.636544 194.628806,6.318496 194.628806,5.910964 C194.628806,5.64163733 194.582906,5.42104133 194.491106,5.24916933 C194.399306,5.07729733 194.245806,4.918716 194.030603,4.77342133 C193.8154,4.628128 193.488086,4.46334533 193.04865,4.27906933 C192.434644,4.02037467 191.995967,3.713844 191.732607,3.359468 C191.469247,3.005092 191.337568,2.54263867 191.337568,1.97209333 C191.337568,1.37319733 191.52869,0.896569333 191.910939,0.542193333 C192.293187,0.187816 192.798832,0.0106306667 193.427887,0.0106306667 C194.084031,0.0106306667 194.687494,0.15238 195.238294,0.43588 L194.999013,1.222592 C194.454233,0.953265333 193.92451,0.818604 193.409828,0.818604 C193.003501,0.818604 192.685968,0.921372 192.45722,1.12691067 C192.228473,1.332448 192.114102,1.61771733 192.114102,1.982724 C192.114102,2.25205067 192.156238,2.47264533 192.240513,2.64451867 C192.324789,2.81639067 192.467002,2.97408533 192.667155,3.117608 C192.86731,3.26113067 193.173555,3.41971067 193.585903,3.593356 C194.278165,3.883944 194.754464,4.19579067 195.014815,4.528904 C195.275165,4.86201733 195.405338,5.29434933 195.405338,5.82591333 Z M199.270193,7.893688 L198.502689,7.893688 L198.502689,0.924917333 L196.41237,0.924917333 L196.41237,0.122258667 L201.360512,0.122258667 L201.360512,0.924917333 L199.270193,0.924917333 L199.270193,7.893688 Z M206.516579,7.893688 L202.837075,7.893688 L202.837075,0.122258667 L206.516579,0.122258667 L206.516579,0.924917333 L203.604578,0.924917333 L203.604578,3.428572 L206.340504,3.428572 L206.340504,4.22591333 L203.604578,4.22591333 L203.604578,7.08571467 L206.516579,7.08571467 L206.516579,7.893688 Z M211.383702,7.893688 L209.144397,1.00465067 L209.108279,1.00465067 C209.150417,1.55039067 209.171485,2.19888933 209.171485,2.95016667 L209.171485,7.893688 L208.462673,7.893688 L208.462673,0.122258667 L209.618443,0.122258667 L211.708762,6.53289067 L211.744881,6.53289067 L213.853259,0.122258667 L215,0.122258667 L215,7.893688 L214.232496,7.893688 L214.232496,2.88637867 C214.232496,2.31228933 214.253565,1.68859733 214.295703,1.01528267 L214.259584,1.01528267 L212.002221,7.893688 L211.383702,7.893688 Z" id="slogan-path"></path>
        <use fill="#000000" xlink:href="#slogan-path"></use>
        <use fill="#FAFAFA" xlink:href="#slogan-path"></use>
    </g>
</svg>
