<?xml version="1.0" encoding="UTF-8" standalone="no"?>
<svg width="128px" height="128px" viewBox="0 0 128 128" version="1.1" xmlns="http://www.w3.org/2000/svg" xmlns:xlink="http://www.w3.org/1999/xlink">
    <g id="spinner" stroke="none" stroke-width="1" fill="none" fill-rule="evenodd">
        <g transform="translate(2.600000, 3.000000)">
            <rect id="Rectangle" fill="#7F7F7F" x="56" y="0" width="11" height="37" rx="5.5"></rect>
            <rect id="Rectangle-Copy" fill="#EAEAEA" x="56" y="85" width="11" height="37" rx="5.5"></rect>
            <rect id="Rectangle" fill="#696969" transform="translate(82.750000, 24.193920) rotate(-330.000000) translate(-82.750000, -24.193920) " x="77.25" y="5.69392034" width="11" height="37" rx="5.5"></rect>
            <rect id="Rectangle-Copy" fill="#DCDCDC" transform="translate(40.250000, 97.806080) rotate(-330.000000) translate(-40.250000, -97.806080) " x="34.75" y="79.3060797" width="11" height="37" rx="5.5"></rect>
            <rect id="Rectangle" fill="#565656" transform="translate(98.306080, 39.750000) rotate(-300.000000) translate(-98.306080, -39.750000) " x="92.8060797" y="21.25" width="11" height="37" rx="5.5"></rect>
            <rect id="Rectangle-Copy" fill="#CBCBCB" transform="translate(24.693920, 82.250000) rotate(-300.000000) translate(-24.693920, -82.250000) " x="19.1939203" y="63.75" width="11" height="37" rx="5.5"></rect>
            <rect id="Rectangle" fill="#B7B7B7" transform="translate(19.000000, 61.000000) rotate(-90.000000) translate(-19.000000, -61.000000) " x="13.5" y="42.5" width="11" height="37" rx="5.5"></rect>
            <rect id="Rectangle-Copy" fill="#454545" transform="translate(104.000000, 61.000000) rotate(-90.000000) translate(-104.000000, -61.000000) " x="98.5" y="42.5" width="11" height="37" rx="5.5"></rect>
            <rect id="Rectangle" fill="#909090" transform="translate(40.250000, 24.193920) rotate(-30.000000) translate(-40.250000, -24.193920) " x="34.75" y="5.69392034" width="11" height="37" rx="5.5"></rect>
            <rect id="Rectangle-Copy" fill="#282828" transform="translate(82.750000, 97.806080) rotate(-30.000000) translate(-82.750000, -97.806080) " x="77.25" y="79.3060797" width="11" height="37" rx="5.5"></rect>
            <rect id="Rectangle" fill="#A6A6A6" transform="translate(24.693920, 39.750000) rotate(-60.000000) translate(-24.693920, -39.750000) " x="19.1939203" y="21.25" width="11" height="37" rx="5.5"></rect>
            <rect id="Rectangle-Copy" fill="#333333" transform="translate(98.306080, 82.250000) rotate(-60.000000) translate(-98.306080, -82.250000) " x="92.8060797" y="63.75" width="11" height="37" rx="5.5"></rect>
        </g>
        <animateTransform attributeName="transform" type="rotate" values="0 64 64;30 64 64;60 64 64;90 64 64;120 64 64;150 64 64;180 64 64;210 64 64;240 64 64;270 64 64;300 64 64;330 64 64" calcMode="discrete" dur="1320ms" repeatCount="indefinite"></animateTransform>
    </g>
</svg>