<?xml version="1.0" encoding="UTF-8" standalone="no"?>
<svg width="810px" height="840px" viewBox="0 0 270 280" version="1.1" xmlns="http://www.w3.org/2000/svg" xmlns:xlink="http://www.w3.org/1999/xlink">
    <!-- Generator: Sketch 50.2 (55047) - http://www.bohemiancoding.com/sketch -->
    <title>logotype-welcome</title>
    <desc>Created with Sketch.</desc>
    <defs>
        <path d="M46,241.125 L48.6885705,241.125 C49.9358091,241.125 50.8371526,241.299601 51.3926281,241.64881 C51.9481036,241.998018 52.2258372,242.549599 52.2258372,243.303571 C52.2258372,243.81151 52.0895515,244.234125 51.8169762,244.571429 C51.5444009,244.908732 51.1520635,245.121031 50.6399523,245.208333 L50.6399523,245.267857 C51.2759614,245.382937 51.7436688,245.610117 52.0430887,245.949405 C52.3425086,246.288692 52.4922163,246.748013 52.4922163,247.327381 C52.4922163,248.109131 52.2082879,248.721228 51.6404226,249.16369 C51.0725574,249.606153 50.2827202,249.827381 49.2708876,249.827381 L46,249.827381 L46,241.125 Z M47.4805722,244.720238 L48.9053907,244.720238 C49.5248801,244.720238 49.9771005,244.625993 50.2620656,244.4375 C50.5470308,244.249007 50.6895112,243.928574 50.6895112,243.47619 C50.6895112,243.067458 50.5356736,242.771826 50.2279939,242.589286 C49.9203142,242.406745 49.4319574,242.315476 48.7629088,242.315476 L47.4805722,242.315476 L47.4805722,244.720238 Z M47.4805722,245.875 L47.4805722,248.630952 L49.0540674,248.630952 C49.6735568,248.630952 50.1412642,248.516866 50.4572038,248.28869 C50.7731434,248.060515 50.9311108,247.700399 50.9311108,247.208333 C50.9311108,246.75595 50.770046,246.420636 50.4479115,246.202381 C50.125777,245.984126 49.6363878,245.875 48.979729,245.875 L47.4805722,245.875 Z M68.5231447,241.125 L68.5231447,246.755952 C68.5231447,247.398813 68.3796318,247.961307 68.0926017,248.443452 C67.8055716,248.925598 67.39052,249.296626 66.8474343,249.556548 C66.3043486,249.81647 65.654927,249.946429 64.8991499,249.946429 C63.7758092,249.946429 62.9023423,249.660717 62.2787229,249.089286 C61.6551036,248.517854 61.3432986,247.732148 61.3432986,246.732143 L61.3432986,241.125 L62.8300657,241.125 L62.8300657,246.630952 C62.8300657,247.34921 63.0035202,247.878967 63.3504342,248.220238 C63.6973483,248.56151 64.2301011,248.732143 64.9487088,248.732143 C66.3446249,248.732143 67.0425725,248.027785 67.0425725,246.619048 L67.0425725,241.125 L68.5231447,241.125 Z M81.0168064,249.827381 L79.5362342,249.827381 L79.5362342,242.345238 L76.8724432,242.345238 L76.8724432,241.125 L83.6805975,241.125 L83.6805975,242.345238 L81.0168064,242.345238 L81.0168064,249.827381 Z M95.4990191,249.827381 L94.0184469,249.827381 L94.0184469,242.345238 L91.3546559,242.345238 L91.3546559,241.125 L98.1628102,241.125 L98.1628102,242.345238 L95.4990191,242.345238 L95.4990191,249.827381 Z M111.721988,249.827381 L106.598837,249.827381 L106.598837,241.125 L111.721988,241.125 L111.721988,242.327381 L108.079409,242.327381 L108.079409,244.696429 L111.492778,244.696429 L111.492778,245.886905 L108.079409,245.886905 L108.079409,248.619048 L111.721988,248.619048 L111.721988,249.827381 Z M122.208514,245.172619 L123.236862,245.172619 C123.92656,245.172619 124.426274,245.049604 124.736019,244.803571 C125.045763,244.557538 125.200633,244.192463 125.200633,243.708333 C125.200633,243.216267 125.033374,242.863096 124.698849,242.64881 C124.364325,242.434523 123.860481,242.327381 123.187303,242.327381 L122.208514,242.327381 L122.208514,245.172619 Z M122.208514,246.35119 L122.208514,249.827381 L120.727942,249.827381 L120.727942,241.125 L123.286421,241.125 C124.455191,241.125 125.320398,241.335315 125.882068,241.755952 C126.443739,242.176589 126.72457,242.811504 126.72457,243.660714 C126.72457,244.744053 126.138128,245.515871 124.965228,245.97619 L127.523707,249.827381 L125.838704,249.827381 L123.670502,246.35119 L122.208514,246.35119 Z M137.353578,249.827381 L135.885395,249.827381 L135.885395,241.125 L140.996157,241.125 L140.996157,242.327381 L137.353578,242.327381 L137.353578,245.047619 L140.766947,245.047619 L140.766947,246.255952 L137.353578,246.255952 L137.353578,249.827381 Z M149.686173,249.827381 L149.686173,241.125 L151.166745,241.125 L151.166745,248.607143 L155.001365,248.607143 L155.001365,249.827381 L149.686173,249.827381 Z M165.79144,245.095238 L167.934862,241.125 L169.545527,241.125 L166.528628,246.452381 L166.528628,249.827381 L165.041861,249.827381 L165.041861,246.5 L162.037353,241.125 L163.648017,241.125 L165.79144,245.095238 Z M176.655852,249.083333 C176.655852,248.793649 176.73432,248.571429 176.891257,248.416667 C177.048195,248.261904 177.275337,248.184524 177.572692,248.184524 C177.874177,248.184524 178.103385,248.26488 178.260322,248.425595 C178.417259,248.58631 178.495727,248.805554 178.495727,249.083333 C178.495727,249.365081 178.416227,249.588293 178.257224,249.752976 C178.098222,249.91766 177.870047,250 177.572692,250 C177.275337,250 177.048195,249.918652 176.891257,249.755952 C176.73432,249.593253 176.655852,249.369049 176.655852,249.083333 Z M190.784958,242.220238 C189.934193,242.220238 189.265154,242.509918 188.777822,243.089286 C188.290491,243.668654 188.046829,244.468249 188.046829,245.488095 C188.046829,246.555561 188.281199,247.363092 188.749946,247.910714 C189.218692,248.458336 189.897023,248.732143 190.784958,248.732143 C191.169041,248.732143 191.540729,248.695437 191.900033,248.622024 C192.259337,248.548611 192.63309,248.454366 193.021303,248.339286 L193.021303,249.559524 C192.310956,249.817462 191.505632,249.946429 190.605307,249.946429 C189.2796,249.946429 188.261587,249.56052 187.55124,248.78869 C186.840892,248.016861 186.485723,246.912706 186.485723,245.47619 C186.485723,244.571424 186.658145,243.779765 187.002994,243.10119 C187.347843,242.422616 187.846525,241.90278 188.499054,241.541667 C189.151582,241.180554 189.917673,241 190.797348,241 C191.722452,241 192.577334,241.186506 193.362021,241.559524 L192.829263,242.744048 C192.523648,242.605158 192.200486,242.483135 191.859767,242.377976 C191.519047,242.272817 191.160782,242.220238 190.784958,242.220238 Z M205.936216,249.827381 L203.309594,242.559524 L203.260035,242.559524 C203.330244,243.638894 203.365348,244.650789 203.365348,245.595238 L203.365348,249.827381 L202.021063,249.827381 L202.021063,241.125 L204.108731,241.125 L206.623846,248.047619 L206.661015,248.047619 L209.250467,241.125 L211.344331,241.125 L211.344331,249.827381 L209.919513,249.827381 L209.919513,245.52381 C209.919513,245.091268 209.93087,244.527781 209.953584,243.833333 C209.976299,243.138885 209.995916,242.718255 210.012436,242.571429 L209.962877,242.571429 L207.243332,249.827381 L205.936216,249.827381 Z M226,247.464286 C226,248.238099 225.708844,248.845236 225.126524,249.285714 C224.544204,249.726193 223.740945,249.946429 222.716723,249.946429 C221.6925,249.946429 220.854137,249.793652 220.201608,249.488095 L220.201608,248.142857 C220.614601,248.329366 221.0534,248.47619 221.518017,248.583333 C221.982634,248.690477 222.415237,248.744048 222.81584,248.744048 C223.40229,248.744048 223.834894,248.636906 224.113664,248.422619 C224.392434,248.208332 224.531818,247.920637 224.531818,247.559524 C224.531818,247.234125 224.403792,246.958334 224.147736,246.732143 C223.89168,246.505951 223.363057,246.238097 222.561851,245.928571 C221.735865,245.607141 221.153554,245.240081 220.8149,244.827381 C220.476246,244.41468 220.306921,243.918654 220.306921,243.339286 C220.306921,242.613092 220.575362,242.041669 221.112253,241.625 C221.649144,241.208331 222.369806,241 223.27426,241 C224.141545,241 225.004688,241.182538 225.863713,241.547619 L225.392903,242.708333 C224.587567,242.382935 223.86897,242.220238 223.237091,242.220238 C222.758019,242.220238 222.394591,242.320436 222.146795,242.520833 C221.899,242.721231 221.775104,242.986109 221.775104,243.315476 C221.775104,243.541668 221.824662,243.735118 221.92378,243.895833 C222.022899,244.056548 222.186028,244.208333 222.413174,244.35119 C222.640321,244.494048 223.049177,244.682539 223.639757,244.916667 C224.304676,245.182541 224.792,245.430554 225.101745,245.660714 C225.41149,245.890874 225.638632,246.150792 225.78318,246.440476 C225.927727,246.73016 226,247.071427 226,247.464286 Z" id="path-1"></path>
        <filter x="-3.9%" y="-55.6%" width="107.8%" height="255.6%" filterUnits="objectBoundingBox" id="filter-2">
            <feOffset dx="0" dy="2" in="SourceAlpha" result="shadowOffsetOuter1"></feOffset>
            <feGaussianBlur stdDeviation="2" in="shadowOffsetOuter1" result="shadowBlurOuter1"></feGaussianBlur>
            <feColorMatrix values="0 0 0 0 0   0 0 0 0 0   0 0 0 0 0  0 0 0 0.602581522 0" type="matrix" in="shadowBlurOuter1"></feColorMatrix>
        </filter>
        <path d="M46,266.920266 L46,261.091694 L46.6461312,261.091694 L46.6461312,266.920266 L46,266.920266 Z M52.9176116,266.920266 L52.180262,266.920266 L49.1434454,262.028571 L49.1130393,262.028571 C49.153581,262.602661 49.1738516,263.128901 49.1738516,263.607309 L49.1738516,266.920266 L48.5771305,266.920266 L48.5771305,261.091694 L49.3068786,261.091694 L52.3360936,265.963455 L52.3664998,265.963455 C52.361432,265.891694 52.3500298,265.661132 52.3322928,265.271761 C52.3145558,264.88239 52.3082212,264.603988 52.313289,264.436545 L52.313289,261.091694 L52.9176116,261.091694 L52.9176116,266.920266 Z M59.1928929,266.920266 L58.4555432,266.920266 L55.4187267,262.028571 L55.3883205,262.028571 C55.4288623,262.602661 55.4491328,263.128901 55.4491328,263.607309 L55.4491328,266.920266 L54.8524117,266.920266 L54.8524117,261.091694 L55.5821599,261.091694 L58.6113748,265.963455 L58.641781,265.963455 C58.6367133,265.891694 58.6253111,265.661132 58.6075741,265.271761 C58.589837,264.88239 58.5835025,264.603988 58.5885702,264.436545 L58.5885702,261.091694 L59.1928929,261.091694 L59.1928929,266.920266 Z M65.9508721,263.998007 C65.9508721,264.930902 65.7259954,265.664449 65.2762352,266.198671 C64.8264749,266.732893 64.2012543,267 63.4005544,267 C62.5821175,267 61.9505622,266.737544 61.5058697,266.212625 C61.0611772,265.687705 60.8388343,264.946849 60.8388343,263.990033 C60.8388343,263.041191 61.0618107,262.30565 61.5077701,261.783389 C61.9537295,261.261127 62.5871851,261 63.4081559,261 C64.2063219,261 64.8296423,261.265778 65.2781355,261.797342 C65.7266288,262.328906 65.9508721,263.062454 65.9508721,263.998007 Z M61.5229732,263.998007 C61.5229732,264.787379 61.6832375,265.386044 62.0037708,265.79402 C62.3243041,266.201995 62.789894,266.40598 63.4005544,266.40598 C64.0162824,266.40598 64.4812389,266.20266 64.7954376,265.796013 C65.1096362,265.389367 65.2667332,264.790037 65.2667332,263.998007 C65.2667332,263.21395 65.1102697,262.619271 64.7973379,262.213953 C64.4844062,261.808636 64.0213501,261.60598 63.4081559,261.60598 C62.7924278,261.60598 62.3243041,261.809965 62.0037708,262.21794 C61.6832375,262.625916 61.5229732,263.219265 61.5229732,263.998007 Z M70.6944424,261.091694 L71.3899836,261.091694 L69.386977,266.920266 L68.7484473,266.920266 L66.756843,261.091694 L67.4409819,261.091694 L68.7180412,264.863123 C68.8650051,265.296348 68.9815609,265.717606 69.0677122,266.12691 C69.1589311,265.696343 69.2780208,265.267112 69.4249847,264.839203 L70.6944424,261.091694 Z M75.7420744,266.920266 L75.050334,265.066445 L72.8230818,265.066445 L72.1389429,266.920266 L71.4852102,266.920266 L73.6820562,261.067774 L74.2255665,261.067774 L76.4110102,266.920266 L75.7420744,266.920266 Z M74.8488931,264.456478 L74.2027619,262.650498 C74.1191445,262.421926 74.0329946,262.14153 73.9443094,261.809302 C73.8885645,262.064453 73.8087491,262.344849 73.7048608,262.650498 L73.0511281,264.456478 L74.8488931,264.456478 Z M78.7486921,266.920266 L78.1025609,266.920266 L78.1025609,261.693688 L76.3428036,261.693688 L76.3428036,261.091694 L80.5084493,261.091694 L80.5084493,261.693688 L78.7486921,261.693688 L78.7486921,266.920266 Z M81.7515089,266.920266 L81.7515089,261.091694 L82.3976401,261.091694 L82.3976401,266.920266 L81.7515089,266.920266 Z M87.5022837,261.091694 L88.1978249,261.091694 L86.1948183,266.920266 L85.5562886,266.920266 L83.5646843,261.091694 L84.2488232,261.091694 L85.5258825,264.863123 C85.6728464,265.296348 85.7894022,265.717606 85.8755535,266.12691 C85.9667724,265.696343 86.0858621,265.267112 86.232826,264.839203 L87.5022837,261.091694 Z M92.4662987,266.920266 L89.3686699,266.920266 L89.3686699,261.091694 L92.4662987,261.091694 L92.4662987,261.693688 L90.0148011,261.693688 L90.0148011,263.571429 L92.3180687,263.571429 L92.3180687,264.169435 L90.0148011,264.169435 L90.0148011,266.314286 L92.4662987,266.314286 L92.4662987,266.920266 Z M98.912822,261.613953 C98.3021617,261.613953 97.8201019,261.82724 97.4666284,262.253821 C97.1131549,262.680401 96.9364208,263.264448 96.9364208,264.00598 C96.9364208,264.768775 97.1068203,265.358137 97.4476246,265.774086 C97.7884288,266.190035 98.2742892,266.398007 98.9052205,266.398007 C99.2929011,266.398007 99.7350531,266.324918 100.23169,266.178738 L100.23169,266.772757 C99.846543,266.924253 99.3714513,267 98.8064004,267 C97.9879635,267 97.3564083,266.739537 96.9117158,266.218605 C96.4670233,265.697672 96.2446803,264.95748 96.2446803,263.998007 C96.2446803,263.397339 96.3517343,262.871099 96.5658455,262.419269 C96.7799567,261.96744 97.0890831,261.61927 97.4932338,261.374751 C97.8973846,261.130231 98.3731097,261.007973 98.9204236,261.007973 C99.5032115,261.007973 100.01251,261.1196 100.448334,261.342857 L100.174678,261.924917 C99.7540574,261.717607 99.3334428,261.613953 98.912822,261.613953 Z M106.518373,263.998007 C106.518373,264.930902 106.293497,265.664449 105.843736,266.198671 C105.393976,266.732893 104.768755,267 103.968056,267 C103.149619,267 102.518063,266.737544 102.073371,266.212625 C101.628678,265.687705 101.406335,264.946849 101.406335,263.990033 C101.406335,263.041191 101.629312,262.30565 102.075271,261.783389 C102.521231,261.261127 103.154686,261 103.975657,261 C104.773823,261 105.397143,261.265778 105.845637,261.797342 C106.29413,262.328906 106.518373,263.062454 106.518373,263.998007 Z M102.090474,263.998007 C102.090474,264.787379 102.250739,265.386044 102.571272,265.79402 C102.891805,266.201995 103.357395,266.40598 103.968056,266.40598 C104.583784,266.40598 105.04874,266.20266 105.362939,265.796013 C105.677137,265.389367 105.834234,264.790037 105.834234,263.998007 C105.834234,263.21395 105.677771,262.619271 105.364839,262.213953 C105.051907,261.808636 104.588851,261.60598 103.975657,261.60598 C103.359929,261.60598 102.891805,261.809965 102.571272,262.21794 C102.250739,262.625916 102.090474,263.219265 102.090474,263.998007 Z M112.504796,266.920266 L111.767446,266.920266 L108.73063,262.028571 L108.700224,262.028571 C108.740765,262.602661 108.761036,263.128901 108.761036,263.607309 L108.761036,266.920266 L108.164315,266.920266 L108.164315,261.091694 L108.894063,261.091694 L111.923278,265.963455 L111.953684,265.963455 C111.948616,265.891694 111.937214,265.661132 111.919477,265.271761 C111.90174,264.88239 111.895406,264.603988 111.900473,264.436545 L111.900473,261.091694 L112.504796,261.091694 L112.504796,266.920266 Z M116.149943,266.920266 L115.503812,266.920266 L115.503812,261.693688 L113.744055,261.693688 L113.744055,261.091694 L117.9097,261.091694 L117.9097,261.693688 L116.149943,261.693688 L116.149943,266.920266 Z M122.250389,266.920266 L119.15276,266.920266 L119.15276,261.091694 L122.250389,261.091694 L122.250389,261.693688 L119.798891,261.693688 L119.798891,263.571429 L122.102159,263.571429 L122.102159,264.169435 L119.798891,264.169435 L119.798891,266.314286 L122.250389,266.314286 L122.250389,266.920266 Z M128.22921,266.920266 L127.49186,266.920266 L124.455044,262.028571 L124.424638,262.028571 C124.465179,262.602661 124.48545,263.128901 124.48545,263.607309 L124.48545,266.920266 L123.888729,266.920266 L123.888729,261.091694 L124.618477,261.091694 L127.647692,265.963455 L127.678098,265.963455 C127.67303,265.891694 127.661628,265.661132 127.643891,265.271761 C127.626154,264.88239 127.61982,264.603988 127.624887,264.436545 L127.624887,261.091694 L128.22921,261.091694 L128.22921,266.920266 Z M131.874357,266.920266 L131.228226,266.920266 L131.228226,261.693688 L129.468469,261.693688 L129.468469,261.091694 L133.634115,261.091694 L133.634115,261.693688 L131.874357,261.693688 L131.874357,266.920266 Z M139.765174,266.920266 L137.879991,261.753488 L137.849585,261.753488 C137.885059,262.162793 137.902796,262.649167 137.902796,263.212625 L137.902796,266.920266 L137.306075,266.920266 L137.306075,261.091694 L138.279072,261.091694 L140.038829,265.899668 L140.069236,265.899668 L141.844196,261.091694 L142.809592,261.091694 L142.809592,266.920266 L142.163461,266.920266 L142.163461,263.164784 C142.163461,262.734217 142.181197,262.266448 142.216671,261.761462 L142.186265,261.761462 L140.285879,266.920266 L139.765174,266.920266 Z M148.2335,266.920266 L147.54176,265.066445 L145.314508,265.066445 L144.630369,266.920266 L143.976636,266.920266 L146.173482,261.067774 L146.716992,261.067774 L148.902436,266.920266 L148.2335,266.920266 Z M147.340319,264.456478 L146.694188,262.650498 C146.61057,262.421926 146.52442,262.14153 146.435735,261.809302 C146.37999,262.064453 146.300175,262.344849 146.196287,262.650498 L145.542554,264.456478 L147.340319,264.456478 Z M154.413762,266.920266 L153.676412,266.920266 L150.639596,262.028571 L150.60919,262.028571 C150.649732,262.602661 150.670002,263.128901 150.670002,263.607309 L150.670002,266.920266 L150.073281,266.920266 L150.073281,261.091694 L150.803029,261.091694 L153.832244,265.963455 L153.86265,265.963455 C153.857583,265.891694 153.84618,265.661132 153.828443,265.271761 C153.810706,264.88239 153.804372,264.603988 153.80944,264.436545 L153.80944,261.091694 L154.413762,261.091694 L154.413762,266.920266 Z M159.841471,266.920266 L159.149731,265.066445 L156.922479,265.066445 L156.23834,266.920266 L155.584607,266.920266 L157.781453,261.067774 L158.324963,261.067774 L160.510407,266.920266 L159.841471,266.920266 Z M158.94829,264.456478 L158.302159,262.650498 C158.218541,262.421926 158.132392,262.14153 158.043706,261.809302 C157.987961,262.064453 157.908146,262.344849 157.804258,262.650498 L157.150525,264.456478 L158.94829,264.456478 Z M163.969317,263.866445 L165.8583,263.866445 L165.8583,266.700997 C165.564372,266.799336 165.265381,266.873754 164.961318,266.924252 C164.657255,266.974751 164.305053,267 163.904704,267 C163.063462,267 162.408469,266.737544 161.939705,266.212625 C161.47094,265.687705 161.236562,264.952164 161.236562,264.00598 C161.236562,263.399997 161.352484,262.869105 161.584332,262.413289 C161.816181,261.957473 162.150012,261.609304 162.585836,261.368771 C163.02166,261.128238 163.532225,261.007973 164.117547,261.007973 C164.71047,261.007973 165.262843,261.122258 165.774683,261.350831 L165.523832,261.948837 C165.022128,261.72558 164.539435,261.613953 164.075738,261.613953 C163.399198,261.613953 162.870896,261.825247 162.490816,262.247841 C162.110737,262.670434 161.920701,263.256475 161.920701,264.00598 C161.920701,264.792695 162.103769,265.389367 162.469912,265.796013 C162.836055,266.20266 163.373859,266.40598 164.08334,266.40598 C164.468487,266.40598 164.844759,266.359469 165.212169,266.266445 L165.212169,264.472425 L163.969317,264.472425 L163.969317,263.866445 Z M170.69689,266.920266 L167.599261,266.920266 L167.599261,261.091694 L170.69689,261.091694 L170.69689,261.693688 L168.245392,261.693688 L168.245392,263.571429 L170.54866,263.571429 L170.54866,264.169435 L168.245392,264.169435 L168.245392,266.314286 L170.69689,266.314286 L170.69689,266.920266 Z M174.794329,266.920266 L172.909146,261.753488 L172.87874,261.753488 C172.914214,262.162793 172.931951,262.649167 172.931951,263.212625 L172.931951,266.920266 L172.33523,266.920266 L172.33523,261.091694 L173.308227,261.091694 L175.067984,265.899668 L175.098391,265.899668 L176.873351,261.091694 L177.838747,261.091694 L177.838747,266.920266 L177.192616,266.920266 L177.192616,263.164784 C177.192616,262.734217 177.210352,262.266448 177.245827,261.761462 L177.21542,261.761462 L175.315035,266.920266 L174.794329,266.920266 Z M182.867375,266.920266 L179.769746,266.920266 L179.769746,261.091694 L182.867375,261.091694 L182.867375,261.693688 L180.415877,261.693688 L180.415877,263.571429 L182.719145,263.571429 L182.719145,264.169435 L180.415877,264.169435 L180.415877,266.314286 L182.867375,266.314286 L182.867375,266.920266 Z M188.846196,266.920266 L188.108846,266.920266 L185.07203,262.028571 L185.041624,262.028571 C185.082165,262.602661 185.102436,263.128901 185.102436,263.607309 L185.102436,266.920266 L184.505715,266.920266 L184.505715,261.091694 L185.235463,261.091694 L188.264678,265.963455 L188.295084,265.963455 C188.290016,265.891694 188.278614,265.661132 188.260877,265.271761 C188.24314,264.88239 188.236806,264.603988 188.241873,264.436545 L188.241873,261.091694 L188.846196,261.091694 L188.846196,266.920266 Z M192.491343,266.920266 L191.845212,266.920266 L191.845212,261.693688 L190.085455,261.693688 L190.085455,261.091694 L194.251101,261.091694 L194.251101,261.693688 L192.491343,261.693688 L192.491343,266.920266 Z M201.058697,265.369435 C201.058697,265.882395 200.88133,266.282391 200.526589,266.569435 C200.171849,266.85648 199.690422,267 199.082296,267 C198.423492,267 197.916728,266.910964 197.561987,266.73289 L197.561987,266.07907 C197.790035,266.180067 198.038349,266.2598 198.306939,266.318272 C198.575528,266.376744 198.841579,266.40598 199.105101,266.40598 C199.535857,266.40598 199.860186,266.320267 200.078098,266.148837 C200.29601,265.977408 200.404964,265.738872 200.404964,265.433223 C200.404964,265.231228 200.366324,265.065781 200.289041,264.936877 C200.211758,264.807973 200.082533,264.689037 199.901362,264.580066 C199.720191,264.471096 199.444638,264.347509 199.074694,264.209302 C198.557787,264.015281 198.188482,263.785383 197.966769,263.519601 C197.745057,263.253819 197.634202,262.906979 197.634202,262.47907 C197.634202,262.029898 197.7951,261.672427 198.1169,261.406645 C198.4387,261.140862 198.864382,261.007973 199.393959,261.007973 C199.946341,261.007973 200.454372,261.114285 200.918069,261.32691 L200.716628,261.916944 C200.257999,261.714949 199.812046,261.613953 199.378756,261.613953 C199.036685,261.613953 198.769367,261.691029 198.576793,261.845183 C198.38422,261.999336 198.287935,262.213288 198.287935,262.487043 C198.287935,262.689038 198.323408,262.854484 198.394356,262.983389 C198.465304,263.112293 198.585027,263.230564 198.753529,263.338206 C198.922031,263.445848 199.179847,263.564783 199.526986,263.695017 C200.109774,263.912958 200.510752,264.146843 200.72993,264.396678 C200.949109,264.646513 201.058697,264.970762 201.058697,265.369435 Z M204.015905,264.00598 L205.498206,261.091694 L206.197548,261.091694 L204.342771,264.659801 L204.342771,266.920266 L203.689038,266.920266 L203.689038,264.691694 L201.838063,261.091694 L202.545006,261.091694 L204.015905,264.00598 Z M210.504029,265.369435 C210.504029,265.882395 210.326662,266.282391 209.971921,266.569435 C209.617181,266.85648 209.135755,267 208.527628,267 C207.868824,267 207.36206,266.910964 207.007319,266.73289 L207.007319,266.07907 C207.235367,266.180067 207.483681,266.2598 207.752271,266.318272 C208.02086,266.376744 208.286911,266.40598 208.550433,266.40598 C208.981189,266.40598 209.305518,266.320267 209.52343,266.148837 C209.741342,265.977408 209.850297,265.738872 209.850297,265.433223 C209.850297,265.231228 209.811656,265.065781 209.734373,264.936877 C209.65709,264.807973 209.527865,264.689037 209.346694,264.580066 C209.165523,264.471096 208.88997,264.347509 208.520026,264.209302 C208.003119,264.015281 207.633814,263.785383 207.412102,263.519601 C207.190389,263.253819 207.079534,262.906979 207.079534,262.47907 C207.079534,262.029898 207.240432,261.672427 207.562232,261.406645 C207.884032,261.140862 208.309714,261.007973 208.839291,261.007973 C209.391673,261.007973 209.899704,261.114285 210.363401,261.32691 L210.16196,261.916944 C209.703331,261.714949 209.257378,261.613953 208.824088,261.613953 C208.482017,261.613953 208.214699,261.691029 208.022125,261.845183 C207.829552,261.999336 207.733267,262.213288 207.733267,262.487043 C207.733267,262.689038 207.76874,262.854484 207.839688,262.983389 C207.910636,263.112293 208.03036,263.230564 208.198861,263.338206 C208.367363,263.445848 208.625179,263.564783 208.972318,263.695017 C209.555106,263.912958 209.956084,264.146843 210.175263,264.396678 C210.394441,264.646513 210.504029,264.970762 210.504029,265.369435 Z M213.757697,266.920266 L213.111566,266.920266 L213.111566,261.693688 L211.351809,261.693688 L211.351809,261.091694 L215.517454,261.091694 L215.517454,261.693688 L213.757697,261.693688 L213.757697,266.920266 Z M219.858143,266.920266 L216.760514,266.920266 L216.760514,261.091694 L219.858143,261.091694 L219.858143,261.693688 L217.406645,261.693688 L217.406645,263.571429 L219.709913,263.571429 L219.709913,264.169435 L217.406645,264.169435 L217.406645,266.314286 L219.858143,266.314286 L219.858143,266.920266 Z M223.955582,266.920266 L222.070399,261.753488 L222.039993,261.753488 C222.075467,262.162793 222.093204,262.649167 222.093204,263.212625 L222.093204,266.920266 L221.496483,266.920266 L221.496483,261.091694 L222.46948,261.091694 L224.229237,265.899668 L224.259644,265.899668 L226.034604,261.091694 L227,261.091694 L227,266.920266 L226.353869,266.920266 L226.353869,263.164784 C226.353869,262.734217 226.371606,262.266448 226.40708,261.761462 L226.376673,261.761462 L224.476288,266.920266 L223.955582,266.920266 Z" id="path-3"></path>
        <filter x="-3.9%" y="-83.3%" width="107.7%" height="333.3%" filterUnits="objectBoundingBox" id="filter-4">
            <feOffset dx="0" dy="2" in="SourceAlpha" result="shadowOffsetOuter1"></feOffset>
            <feGaussianBlur stdDeviation="2" in="shadowOffsetOuter1" result="shadowBlurOuter1"></feGaussianBlur>
            <feColorMatrix values="0 0 0 0 0   0 0 0 0 0   0 0 0 0 0  0 0 0 0.602581522 0" type="matrix" in="shadowBlurOuter1"></feColorMatrix>
        </filter>
        <linearGradient x1="50%" y1="83.7407855%" x2="50%" y2="13.8766243%" id="linearGradient-5">
            <stop stop-color="#FFFFFF" offset="0%"></stop>
            <stop stop-color="#FFFFFF" stop-opacity="0" offset="100%"></stop>
        </linearGradient>
        <path d="M105.584989,203.76682 C123.86499,203.76682 118.519366,181.690872 131.327447,176.307031 C123.526598,172.501616 113.194334,171.125394 105.584989,173.671508 C95.2101686,176.963161 92.0342312,184.47711 92.0342312,190.505983 C92.0342312,196.534855 97.1629548,203.76682 105.584989,203.76682 Z" id="path-6"></path>
        <filter x="-64.9%" y="-52.6%" width="214.5%" height="243.4%" filterUnits="objectBoundingBox" id="filter-7">
            <feMorphology radius="0.5" operator="dilate" in="SourceAlpha" result="shadowSpreadOuter1"></feMorphology>
            <feOffset dx="-3" dy="6" in="shadowSpreadOuter1" result="shadowOffsetOuter1"></feOffset>
            <feGaussianBlur stdDeviation="6" in="shadowOffsetOuter1" result="shadowBlurOuter1"></feGaussianBlur>
            <feColorMatrix values="0 0 0 0 0   0 0 0 0 0   0 0 0 0 0  0 0 0 0.36 0" type="matrix" in="shadowBlurOuter1"></feColorMatrix>
        </filter>
        <path d="M150.20913,205.319324 C160.097376,200.892579 163.156938,181.731362 175.39439,175.969054 C167.593541,172.163639 157.261277,170.787417 149.651932,173.333531 C140.198696,176.584628 137.73908,184.945618 137.73908,190.97449 C137.73908,197.003363 144.874866,207.200399 150.20913,205.319324 Z" id="path-8"></path>
        <filter x="-67.7%" y="-49.2%" width="219.5%" height="234.3%" filterUnits="objectBoundingBox" id="filter-9">
            <feMorphology radius="0.5" operator="dilate" in="SourceAlpha" result="shadowSpreadOuter1"></feMorphology>
            <feOffset dx="-3" dy="6" in="shadowSpreadOuter1" result="shadowOffsetOuter1"></feOffset>
            <feGaussianBlur stdDeviation="6" in="shadowOffsetOuter1" result="shadowBlurOuter1"></feGaussianBlur>
            <feColorMatrix values="0 0 0 0 0   0 0 0 0 0   0 0 0 0 0  0 0 0 0.36 0" type="matrix" in="shadowBlurOuter1"></feColorMatrix>
        </filter>
        <linearGradient x1="75.6601979%" y1="100%" x2="50%" y2="0%" id="linearGradient-10">
            <stop stop-color="#FFFFFF" stop-opacity="0.740772192" offset="0%"></stop>
            <stop stop-color="#FFFFFF" stop-opacity="0" offset="100%"></stop>
        </linearGradient>
        <path d="M83.0080129,198.145505 C86.6719349,159.824412 94.4201385,125.349785 94.4201385,95.2888101 C94.4201385,65.227835 80.0074182,41.0123554 70.3657231,40.8585998 C60.7240279,40.7048442 46.3113077,65.227835 46.3113077,95.2888101 C46.3113077,125.349785 48.5188078,144.68403 83.0080129,198.145505 Z" id="path-11"></path>
        <filter x="-50.9%" y="-11.1%" width="189.4%" height="127.3%" filterUnits="objectBoundingBox" id="filter-12">
            <feMorphology radius="0.5" operator="dilate" in="SourceAlpha" result="shadowSpreadOuter1"></feMorphology>
            <feOffset dx="-3" dy="4" in="shadowSpreadOuter1" result="shadowOffsetOuter1"></feOffset>
            <feGaussianBlur stdDeviation="6" in="shadowOffsetOuter1" result="shadowBlurOuter1"></feGaussianBlur>
            <feColorMatrix values="0 0 0 0 0   0 0 0 0 0   0 0 0 0 0  0 0 0 0.36 0" type="matrix" in="shadowBlurOuter1"></feColorMatrix>
        </filter>
        <linearGradient x1="11.3392416%" y1="21.2093065%" x2="86.4697897%" y2="100%" id="linearGradient-13">
            <stop stop-color="#000000" stop-opacity="0" offset="0%"></stop>
            <stop stop-color="#000000" stop-opacity="0.19921875" offset="100%"></stop>
        </linearGradient>
        <linearGradient x1="85.5629882%" y1="100%" x2="50%" y2="0%" id="linearGradient-14">
            <stop stop-color="#FFFFFF" offset="0%"></stop>
            <stop stop-color="#FFFFFF" stop-opacity="0" offset="100%"></stop>
        </linearGradient>
        <linearGradient x1="84.7559823%" y1="100%" x2="50%" y2="36.6746294%" id="linearGradient-15">
            <stop stop-color="#FFFFFF" stop-opacity="0.5" offset="0%"></stop>
            <stop stop-color="#FFFFFF" stop-opacity="0" offset="100%"></stop>
        </linearGradient>
        <path d="M94.7758439,188.629121 C99.5399763,143.136046 103.644056,105.101466 103.644056,69.4144305 C103.644056,33.7273949 84.9034536,4.97986816 72.3665297,4.79733646 C59.8296059,4.61480475 41.0890033,33.7273949 41.0890033,69.4144305 C41.0890033,105.101466 75.4063844,158.013421 94.7758439,188.629121 Z" id="path-16"></path>
        <filter x="-54.4%" y="-17.4%" width="208.7%" height="137.0%" filterUnits="objectBoundingBox" id="filter-17">
            <feOffset dx="0" dy="2" in="SourceAlpha" result="shadowOffsetOuter1"></feOffset>
            <feGaussianBlur stdDeviation="11" in="shadowOffsetOuter1" result="shadowBlurOuter1"></feGaussianBlur>
            <feColorMatrix values="0 0 0 0 0   0 0 0 0 0   0 0 0 0 0  0 0 0 0.162930254 0" type="matrix" in="shadowBlurOuter1"></feColorMatrix>
        </filter>
        <linearGradient x1="100%" y1="100%" x2="50%" y2="35.0884169%" id="linearGradient-18">
            <stop stop-color="#FFFFFF" offset="0%"></stop>
            <stop stop-color="#FFFFFF" stop-opacity="0" offset="100%"></stop>
        </linearGradient>
        <path d="M201.629003,189.562811 C200.781568,158.855942 200.959236,138.727293 200.755386,121.567092 C200.551536,104.406891 200.804434,65.5831866 191.162739,65.4598478 C181.521043,65.336509 168.726704,96.0806748 168.726704,120.194814 C168.726704,144.308952 176.373133,162.674121 201.629003,189.562811 Z" id="path-19"></path>
        <filter x="-74.5%" y="-14.1%" width="230.7%" height="134.6%" filterUnits="objectBoundingBox" id="filter-20">
            <feMorphology radius="0.5" operator="dilate" in="SourceAlpha" result="shadowSpreadOuter1"></feMorphology>
            <feOffset dx="-3" dy="4" in="shadowSpreadOuter1" result="shadowOffsetOuter1"></feOffset>
            <feGaussianBlur stdDeviation="6" in="shadowOffsetOuter1" result="shadowBlurOuter1"></feGaussianBlur>
            <feColorMatrix values="0 0 0 0 0   0 0 0 0 0   0 0 0 0 0  0 0 0 0.36 0" type="matrix" in="shadowBlurOuter1"></feColorMatrix>
        </filter>
        <path d="M192.006848,182.819369 C191.159413,151.546798 193.44135,129.689159 193.2375,112.212821 C193.03365,94.7364836 191.182279,56.5557091 181.540584,56.4300981 C171.898889,56.3044871 161.849574,83.5703319 161.849574,108.128718 C161.849574,132.687103 166.750978,155.435318 192.006848,182.819369 Z" id="path-21"></path>
        <filter x="-108.3%" y="-25.3%" width="316.6%" height="153.8%" filterUnits="objectBoundingBox" id="filter-22">
            <feOffset dx="0" dy="2" in="SourceAlpha" result="shadowOffsetOuter1"></feOffset>
            <feGaussianBlur stdDeviation="11" in="shadowOffsetOuter1" result="shadowBlurOuter1"></feGaussianBlur>
            <feColorMatrix values="0 0 0 0 0   0 0 0 0 0   0 0 0 0 0  0 0 0 0.162930254 0" type="matrix" in="shadowBlurOuter1"></feColorMatrix>
        </filter>
        <circle id="path-23" cx="126.5" cy="36.5" r="1"></circle>
        <filter x="-600.0%" y="-600.0%" width="1300.0%" height="1300.0%" filterUnits="objectBoundingBox" id="filter-24">
            <feMorphology radius="1" operator="dilate" in="SourceAlpha" result="shadowSpreadOuter1"></feMorphology>
            <feOffset dx="0" dy="0" in="shadowSpreadOuter1" result="shadowOffsetOuter1"></feOffset>
            <feGaussianBlur stdDeviation="1" in="shadowOffsetOuter1" result="shadowBlurOuter1"></feGaussianBlur>
            <feColorMatrix values="0 0 0 0 0.0882729807   0 0 0 0 0.521661818   0 0 0 0 0.858312075  0 0 0 1 0" type="matrix" in="shadowBlurOuter1"></feColorMatrix>
        </filter>
        <circle id="path-25" cx="21.5" cy="119.5" r="1"></circle>
        <filter x="-900.0%" y="-900.0%" width="1900.0%" height="1900.0%" filterUnits="objectBoundingBox" id="filter-26">
            <feMorphology radius="1" operator="dilate" in="SourceAlpha" result="shadowSpreadOuter1"></feMorphology>
            <feOffset dx="0" dy="0" in="shadowSpreadOuter1" result="shadowOffsetOuter1"></feOffset>
            <feGaussianBlur stdDeviation="2" in="shadowOffsetOuter1" result="shadowBlurOuter1"></feGaussianBlur>
            <feColorMatrix values="0 0 0 0 0.208680733   0 0 0 0 0.595850368   0 0 0 0 0.877737032  0 0 0 1 0" type="matrix" in="shadowBlurOuter1"></feColorMatrix>
        </filter>
        <circle id="path-27" cx="179.5" cy="59.5" r="1"></circle>
        <filter x="-1200.0%" y="-1200.0%" width="2500.0%" height="2500.0%" filterUnits="objectBoundingBox" id="filter-28">
            <feMorphology radius="1" operator="dilate" in="SourceAlpha" result="shadowSpreadOuter1"></feMorphology>
            <feOffset dx="0" dy="0" in="shadowSpreadOuter1" result="shadowOffsetOuter1"></feOffset>
            <feGaussianBlur stdDeviation="3" in="shadowOffsetOuter1" result="shadowBlurOuter1"></feGaussianBlur>
            <feColorMatrix values="0 0 0 0 0.22745098   0 0 0 0 0.68627451   0 0 0 0 0.925490196  0 0 0 1 0" type="matrix" in="shadowBlurOuter1"></feColorMatrix>
        </filter>
        <circle id="path-29" cx="196.5" cy="158.5" r="1"></circle>
        <filter x="-1500.0%" y="-1500.0%" width="3100.0%" height="3100.0%" filterUnits="objectBoundingBox" id="filter-30">
            <feMorphology radius="1" operator="dilate" in="SourceAlpha" result="shadowSpreadOuter1"></feMorphology>
            <feOffset dx="0" dy="0" in="shadowSpreadOuter1" result="shadowOffsetOuter1"></feOffset>
            <feGaussianBlur stdDeviation="4" in="shadowOffsetOuter1" result="shadowBlurOuter1"></feGaussianBlur>
            <feColorMatrix values="0 0 0 0 0.505857818   0 0 0 0 0.764740163   0 0 0 0 0.89971301  0 0 0 1 0" type="matrix" in="shadowBlurOuter1"></feColorMatrix>
        </filter>
    </defs>
    <g id="logotype-welcome" stroke="none" stroke-width="1" fill="none" fill-rule="evenodd">
        <g id="BUTTERFLY.CMS">
            <use fill="black" fill-opacity="1" filter="url(#filter-2)" xlink:href="#path-1"></use>
            <use fill="#FFFFFF" fill-rule="evenodd" xlink:href="#path-1"></use>
        </g>
        <g id="innovative-content-m">
            <use fill="black" fill-opacity="1" filter="url(#filter-4)" xlink:href="#path-3"></use>
            <use fill="#FAFAFA" fill-rule="evenodd" xlink:href="#path-3"></use>
        </g>
        <g id="butterfly" transform="translate(0.000000, 5.000000)">
            <g id="Oval-2" transform="translate(111.680839, 188.071144) rotate(1.000000) translate(-111.680839, -188.071144) ">
                <use fill="black" fill-opacity="1" filter="url(#filter-7)" xlink:href="#path-6"></use>
                <use fill="#1785DB" fill-rule="evenodd" xlink:href="#path-6"></use>
                <use fill="url(#linearGradient-5)" fill-rule="evenodd" style="mix-blend-mode: soft-light;" xlink:href="#path-6"></use>
            </g>
            <g id="Oval-2-Copy" transform="translate(156.566735, 188.792442) scale(-1, 1) rotate(1.000000) translate(-156.566735, -188.792442) ">
                <use fill="black" fill-opacity="1" filter="url(#filter-9)" xlink:href="#path-8"></use>
                <use fill="#1785DB" fill-rule="evenodd" xlink:href="#path-8"></use>
                <use fill="url(#linearGradient-5)" fill-rule="evenodd" style="mix-blend-mode: soft-light;" xlink:href="#path-8"></use>
            </g>
            <g id="Oval-Copy" transform="translate(70.365723, 119.501693) rotate(-41.000000) translate(-70.365723, -119.501693) ">
                <use fill="black" fill-opacity="1" filter="url(#filter-12)" xlink:href="#path-11"></use>
                <use fill="#166AAC" fill-rule="evenodd" xlink:href="#path-11"></use>
                <use fill-opacity="0.55" fill="url(#linearGradient-10)" fill-rule="evenodd" style="mix-blend-mode: soft-light;" xlink:href="#path-11"></use>
            </g>
            <path d="M92.2347481,190.712009 C96.9988805,145.218934 101.10296,107.184354 101.10296,71.4973182 C101.10296,35.8102826 82.3623578,7.0627559 69.8254339,6.8802242 C57.28851,6.69769249 38.5479075,35.8102826 38.5479075,71.4973182 C38.5479075,107.184354 72.8652886,160.096309 92.2347481,190.712009 Z" id="Oval-Copy-4_" fill="url(#linearGradient-13)" opacity="0.55" transform="translate(69.825434, 98.795690) rotate(-27.000000) translate(-69.825434, -98.795690) "></path>
            <g id="Oval" transform="translate(72.366530, 96.712802) rotate(-25.000000) translate(-72.366530, -96.712802) ">
                <use fill="black" fill-opacity="1" filter="url(#filter-17)" xlink:href="#path-16"></use>
                <use fill="#1785DB" fill-rule="evenodd" xlink:href="#path-16"></use>
                <use fill="url(#linearGradient-14)" fill-rule="evenodd" style="mix-blend-mode: soft-light;" xlink:href="#path-16"></use>
                <use fill="url(#linearGradient-15)" fill-rule="evenodd" xlink:href="#path-16"></use>
            </g>
            <g id="Oval-Copy-2" transform="translate(185.177853, 127.511144) scale(-1, 1) rotate(-33.000000) translate(-185.177853, -127.511144) ">
                <use fill="black" fill-opacity="1" filter="url(#filter-20)" xlink:href="#path-19"></use>
                <use fill="#166AAC" fill-rule="evenodd" xlink:href="#path-19"></use>
                <use fill-opacity="0.44" fill="url(#linearGradient-18)" fill-rule="evenodd" style="mix-blend-mode: soft-light;" xlink:href="#path-19"></use>
            </g>
            <path d="M194.582678,184.957491 C193.735243,153.68492 196.01718,131.827281 195.81333,114.350943 C195.609481,96.8746059 193.758109,58.6938313 184.116414,58.5682203 C174.474719,58.4426093 164.425404,85.7084541 164.425404,110.26684 C164.425404,134.825225 169.326808,157.57344 194.582678,184.957491 Z" id="Oval-Copy-3_" fill="url(#linearGradient-13)" opacity="0.552964154" transform="translate(180.125844, 121.762640) scale(-1, 1) rotate(-28.000000) translate(-180.125844, -121.762640) "></path>
            <g id="Oval-Copy-4" transform="translate(177.550014, 119.624517) scale(-1, 1) rotate(-25.000000) translate(-177.550014, -119.624517) ">
                <use fill="black" fill-opacity="1" filter="url(#filter-22)" xlink:href="#path-21"></use>
                <use fill="#1785DB" fill-rule="evenodd" xlink:href="#path-21"></use>
                <use fill="url(#linearGradient-14)" fill-rule="evenodd" style="mix-blend-mode: soft-light;" xlink:href="#path-21"></use>
                <use fill="url(#linearGradient-15)" fill-rule="evenodd" xlink:href="#path-21"></use>
            </g>
            <g id="Oval-3">
                <use fill="black" fill-opacity="1" filter="url(#filter-24)" xlink:href="#path-23"></use>
                <use fill="#18BEEE" fill-rule="evenodd" xlink:href="#path-23"></use>
            </g>
            <g id="Oval-3">
                <use fill="black" fill-opacity="1" filter="url(#filter-26)" xlink:href="#path-25"></use>
                <use fill="#4FAEEC" fill-rule="evenodd" xlink:href="#path-25"></use>
            </g>
            <g id="Oval-3">
                <use fill="black" fill-opacity="1" filter="url(#filter-28)" xlink:href="#path-27"></use>
                <use fill="#89C9F2" fill-rule="evenodd" xlink:href="#path-27"></use>
            </g>
            <g id="Oval-3">
                <use fill="black" fill-opacity="1" filter="url(#filter-30)" xlink:href="#path-29"></use>
                <use fill="#53BEF1" fill-rule="evenodd" xlink:href="#path-29"></use>
            </g>
        </g>
    </g>
</svg>